<svg xmlns="http://www.w3.org/2000/svg" viewBox="0 0 70 70"><title>icon documents</title><path d="M70,35A35,35,0,1,1,35,0,35,35,0,0,1,70,35" fill="#005984"/><path d="M20.68,51.44V23.58H19a1.35,1.35,0,0,0-1.35,1.36V54.48A1.36,1.36,0,0,0,19,55.84H40.13a1.35,1.35,0,0,0,1.35-1.36V52.8H22A1.35,1.35,0,0,1,20.68,51.44Z" fill="#fff"/><path d="M25.5,46.79V18.94H23.85a1.35,1.35,0,0,0-1.35,1.36V49.83a1.35,1.35,0,0,0,1.35,1.36H44.94a1.35,1.35,0,0,0,1.35-1.36V48.15H26.84A1.35,1.35,0,0,1,25.5,46.79Z" fill="#fff"/><path d="M49.67,14.16H28.58a1.35,1.35,0,0,0-1.35,1.36V45.06a1.35,1.35,0,0,0,1.35,1.36H49.67A1.35,1.35,0,0,0,51,45.06V15.52A1.35,1.35,0,0,0,49.67,14.16Zm-3.14,25.9H31.72a1.05,1.05,0,1,1,0-2.1h14.8a1.05,1.05,0,1,1,0,2.1Zm0-5.63H31.72a1.05,1.05,0,1,1,0-2.1h14.8a1.05,1.05,0,1,1,0,2.1Zm0-5.63H31.72a1.05,1.05,0,1,1,0-2.1h14.8a1.05,1.05,0,1,1,0,2.1Zm0-5.63H31.72a1.05,1.05,0,1,1,0-2.1h14.8a1.05,1.05,0,1,1,0,2.1Z" fill="#fff"/></svg>