<svg class="svg-inline--fa fa-file-pdf fa-w-12" aria-hidden="true" focusable="false" data-prefix="fas" data-icon="file-pdf" role="img" xmlns="http://www.w3.org/2000/svg" viewBox="0 0 384 512" data-fa-i2svg="">
<path d="M185.8,240.1c-3.9-12.5-3.8-36.6-1.6-36.6C190.8,203.5,190.2,232.3,185.8,240.1z M184.5,277c-6,15.8-13.5,33.8-22.2,49
	c14.3-5.5,30.5-13.4,49.2-17.1C201.5,301.4,192,290.6,184.5,277L184.5,277z M111,374.5c0,0.6,10.3-4.2,27.3-31.4
	C133,348,115.5,362.3,111,374.5z M248,160h136v328c0,13.3-10.7,24-24,24H24c-13.3,0-24-10.7-24-24V24C0,10.7,10.7,0,24,0h200v136
	C224,149.2,234.8,160,248,160z M231.2,299.3c-15.6-9.5-26-22.7-33.4-42c3.5-14.5,9.1-36.4,4.8-50.2c-3.7-23-33.1-20.7-37.4-5.3
	c-3.9,14.3-0.3,34.5,6.3,60.2c-9.1,21.6-22.4,50.5-31.9,67c-0.1,0-0.1,0.1-0.2,0.1c-21.2,10.9-57.5,34.8-42.6,53.1
	c4.4,5.4,12.5,7.8,16.8,7.8c14,0,27.9-14.1,47.7-48.3c20.2-6.6,42.3-14.9,61.7-18.1c17,9.2,36.8,15.2,50,15.2
	c22.8,0,24.4-25,15.4-33.9C277.9,294.3,246.3,297.3,231.2,299.3z M377,105L279,7c-4.5-4.5-10.6-7-17-7h-6v128h128v-6.1
	C384,115.6,381.5,109.5,377,105z M280.4,321.5c3.2-2.1-2-9.3-33.4-7C275.9,326.9,280.4,321.5,280.4,321.5z"/>
<g>
	<path fill="#fff" d="M91.7,456.4l-10.8-27.8h4l7.2,20.2c0.6,1.6,1.1,3.1,1.5,4.6c0.4-1.5,0.9-3,1.5-4.6l7.5-20.2h3.8l-10.9,27.8
		H91.7z"/>
	<path fill="#fff" d="M110.3,456.4v-27.8h3.7v27.8H110.3z"/>
	<path fill="#fff" d="M120.5,456.4v-27.8h20.1v3.3h-16.4v8.5h15.4v3.3h-15.4v9.5h17.1v3.3H120.5z"/>
	<path fill="#fff" d="M151.3,456.4l-7.4-27.8h3.8l4.2,18.3c0.5,1.9,0.8,3.8,1.2,5.7c0.7-3,1.1-4.7,1.3-5.1l5.3-18.8h4.4l4,14.1
		c1,3.5,1.7,6.8,2.2,9.9c0.4-1.8,0.8-3.8,1.4-6.1l4.4-17.9h3.7l-7.6,27.8h-3.6l-5.9-21.2c-0.5-1.8-0.8-2.9-0.9-3.3
		c-0.3,1.3-0.6,2.4-0.8,3.3l-5.9,21.2H151.3z"/>
	<path fill="#fff" d="M193.9,456.4v-27.8h9.6c2.2,0,3.8,0.1,5,0.4c1.6,0.4,3,1,4.1,2c1.5,1.2,2.6,2.8,3.3,4.8
		c0.7,1.9,1.1,4.1,1.1,6.6c0,2.1-0.2,4-0.7,5.6c-0.5,1.6-1.1,3-1.9,4.1c-0.8,1.1-1.6,1.9-2.5,2.5s-2,1.1-3.3,1.4
		c-1.3,0.3-2.8,0.5-4.5,0.5H193.9z M197.6,453.1h5.9c1.8,0,3.3-0.2,4.3-0.5s1.9-0.8,2.5-1.4c0.9-0.9,1.6-2,2-3.5
		c0.5-1.5,0.7-3.3,0.7-5.4c0-2.9-0.5-5.2-1.4-6.7c-1-1.6-2.1-2.6-3.5-3.1c-1-0.4-2.6-0.6-4.8-0.6h-5.8V453.1z"/>
	<path fill="#fff" d="M220.9,442.8c0-4.6,1.2-8.2,3.7-10.9c2.5-2.6,5.7-3.9,9.6-3.9c2.6,0,4.9,0.6,7,1.8c2.1,1.2,3.6,2.9,4.7,5.1
		c1.1,2.2,1.6,4.7,1.6,7.5c0,2.8-0.6,5.4-1.7,7.6c-1.1,2.2-2.8,3.9-4.8,5.1c-2.1,1.1-4.3,1.7-6.8,1.7c-2.6,0-5-0.6-7-1.9
		c-2.1-1.3-3.6-3-4.7-5.2C221.4,447.6,220.9,445.3,220.9,442.8z M224.7,442.9c0,3.4,0.9,6,2.7,7.9c1.8,1.9,4.1,2.9,6.8,2.9
		c2.8,0,5.1-1,6.8-2.9c1.8-1.9,2.7-4.7,2.7-8.3c0-2.3-0.4-4.2-1.2-5.9s-1.9-3-3.4-3.9s-3.1-1.4-5-1.4c-2.6,0-4.9,0.9-6.7,2.7
		C225.6,435.7,224.7,438.7,224.7,442.9z"/>
	<path fill="#fff" d="M272.1,446.6l3.7,0.9c-0.8,3-2.2,5.3-4.2,6.9c-2,1.6-4.5,2.4-7.4,2.4c-3,0-5.4-0.6-7.3-1.8
		c-1.9-1.2-3.3-3-4.3-5.3c-1-2.3-1.5-4.8-1.5-7.5c0-2.9,0.6-5.4,1.7-7.6c1.1-2.2,2.7-3.8,4.7-4.9c2-1.1,4.3-1.7,6.8-1.7
		c2.8,0,5.1,0.7,7,2.1c1.9,1.4,3.2,3.4,4,6l-3.6,0.9c-0.6-2-1.6-3.5-2.8-4.4c-1.2-0.9-2.8-1.4-4.6-1.4c-2.1,0-3.9,0.5-5.4,1.5
		c-1.4,1-2.4,2.4-3,4.1c-0.6,1.7-0.9,3.5-0.9,5.3c0,2.4,0.3,4.4,1,6.2c0.7,1.8,1.8,3.1,3.2,4c1.5,0.9,3,1.3,4.7,1.3
		c2.1,0,3.8-0.6,5.2-1.8C270.7,450.7,271.6,448.9,272.1,446.6z"/>
	<path fill="#fff" d="M279.1,447.4l3.5-0.3c0.2,1.4,0.5,2.5,1.1,3.4s1.5,1.6,2.8,2.2c1.3,0.6,2.7,0.8,4.3,0.8c1.4,0,2.6-0.2,3.7-0.6
		s1.9-1,2.4-1.7c0.5-0.7,0.8-1.5,0.8-2.4c0-0.9-0.3-1.6-0.8-2.3c-0.5-0.7-1.3-1.2-2.5-1.6c-0.7-0.3-2.4-0.7-5-1.4
		c-2.6-0.6-4.3-1.2-5.4-1.7c-1.3-0.7-2.3-1.6-3-2.6s-1-2.2-1-3.5c0-1.4,0.4-2.7,1.2-3.9c0.8-1.2,2-2.1,3.5-2.8
		c1.5-0.6,3.2-0.9,5.1-0.9c2.1,0,3.9,0.3,5.5,1s2.8,1.6,3.6,2.9c0.8,1.3,1.3,2.8,1.4,4.4l-3.5,0.3c-0.2-1.8-0.8-3.1-1.9-4
		c-1.1-0.9-2.7-1.3-4.9-1.3c-2.2,0-3.9,0.4-4.9,1.2c-1,0.8-1.5,1.8-1.5,3c0,1,0.4,1.8,1.1,2.5c0.7,0.6,2.6,1.3,5.6,2
		c3,0.7,5,1.3,6.2,1.8c1.6,0.7,2.8,1.7,3.6,2.8c0.8,1.1,1.2,2.5,1.2,4c0,1.5-0.4,2.9-1.3,4.2s-2.1,2.3-3.7,3.1
		c-1.6,0.7-3.4,1.1-5.4,1.1c-2.5,0-4.6-0.4-6.3-1.1s-3-1.8-4-3.3C279.7,451,279.2,449.3,279.1,447.4z"/>
</g>
</svg>