<svg xmlns="http://www.w3.org/2000/svg" viewBox="0 0 70 70"><title>icon single document</title><path d="M70,35A35,35,0,1,1,35,0,35,35,0,0,1,70,35" fill="#005984"/><path d="M40.54,21.25a3.05,3.05,0,0,0,3,3h3.51a4.33,4.33,0,0,1,1.92.45A14.88,14.88,0,0,0,47,22L42,16.66A10.24,10.24,0,0,0,40,15.22a4.31,4.31,0,0,1,.49,2Z" fill="#fff"/><path d="M50.17,28.94a3,3,0,0,0-3.06-3h-4a4.32,4.32,0,0,1-4.31-4.31V17.18a3,3,0,0,0-2.92-3H23.38a3.55,3.55,0,0,0-3.55,3.55V52.28a3.55,3.55,0,0,0,3.55,3.54H46.62a3.55,3.55,0,0,0,3.55-3.54Zm-25,.08h6.53a1.08,1.08,0,1,1,0,2.16H25.16a1.08,1.08,0,1,1,0-2.16ZM43.5,46.64H25.16a1.08,1.08,0,0,1,0-2.16H43.5a1.08,1.08,0,0,1,0,2.16Zm0-5H25.16a1.08,1.08,0,0,1,0-2.16H43.5a1.08,1.08,0,0,1,0,2.16Zm0-4.68H25.16a1.08,1.08,0,0,1,0-2.16H43.5a1.08,1.08,0,0,1,0,2.16Z" fill="#fff"/></svg>