<svg xmlns="http://www.w3.org/2000/svg" viewBox="0 0 70 70"><title>icon thumbs up paper</title><path d="M70,35A35,35,0,1,1,35,0,35,35,0,0,1,70,35" fill="#005984"/><path d="M50.18,29a3,3,0,0,0-3.09-3h-4a4.32,4.32,0,0,1-4.31-4.31V17.18a3,3,0,0,0-2.92-3H23.37a3.55,3.55,0,0,0-3.55,3.55V52.28a3.55,3.55,0,0,0,3.55,3.54H46.61a3.55,3.55,0,0,0,3.55-3.54ZM43.62,39.82a1.55,1.55,0,0,1,1.54,1.58A1.58,1.58,0,0,1,43.58,43H43a.25.25,0,1,0,0,.5h0a1.49,1.49,0,0,1,0,3H41.7a.24.24,0,1,0,0,.47h0a1.4,1.4,0,0,1,0,2.81H34.4a4.78,4.78,0,0,1-3-.92,5,5,0,0,0-2.91-1.12l-3.85,0V38.08h3.85a3.45,3.45,0,0,0,2.91-1.72l2.66-4.69a2.63,2.63,0,0,0,.28-1V28.13a1.52,1.52,0,0,1,1.34-1.67c.85-.12,1.46.43,1.94,1.24,0,0,.86,1.17.43,4.23l-.39,3a.76.76,0,0,0,.73,1h5.3a1.68,1.68,0,1,1,0,3.35h-.06a.27.27,0,0,0,0,.53Z" fill="#fff"/><path d="M40.6,21.25a3.05,3.05,0,0,0,3,3h3.51a4.33,4.33,0,0,1,1.92.45,14.92,14.92,0,0,0-2-2.78L42,16.66a10.25,10.25,0,0,0-1.93-1.44,4.31,4.31,0,0,1,.49,2Z" fill="#fff"/></svg>