<svg xmlns="http://www.w3.org/2000/svg" viewBox="0 0 70 70"><title>icon mobile transfer</title><path d="M70,35A35,35,0,1,1,35,0,35,35,0,0,1,70,35" fill="#005984"/><path d="M44.94,13.23H25.06a2.56,2.56,0,0,0-2.56,2.56V53.17a2.56,2.56,0,0,0,2.56,2.56H44.94a2.56,2.56,0,0,0,2.56-2.56V15.79A2.56,2.56,0,0,0,44.94,13.23ZM35,53a2.49,2.49,0,1,1,2.49-2.49A2.49,2.49,0,0,1,35,53Zm9.38-6.45H25.62V16.12H44.38Z" fill="#fff"/><path d="M29.6,27l4.62,0V28.5a.81.81,0,0,0,1.27.67L41,25.44a.81.81,0,0,0,0-1.34l-5.45-3.79a.81.81,0,0,0-1.27.66v1.56l-4.64,0a.81.81,0,0,0-.81.81l0,2.81a.81.81,0,0,0,.82.81Z" fill="#fff"/><path d="M41.06,34.48a.8.8,0,0,0-.57-.23l-4.64,0V32.66A.81.81,0,0,0,34.57,32l-5.45,3.79a.81.81,0,0,0,0,1.34l5.49,3.73a.81.81,0,0,0,1.27-.67V38.65l4.62,0a.81.81,0,0,0,.82-.82l0-2.81A.81.81,0,0,0,41.06,34.48Z" fill="#fff"/></svg>