<svg xmlns="http://www.w3.org/2000/svg" viewBox="0 0 70 70"><title>icon book</title><path d="M70,35A35,35,0,1,1,35,0,35,35,0,0,1,70,35" fill="#005984"/><path d="M58.1,51.55a1.33,1.33,0,0,0,1.09-1.32V21.17c0-.74-.6-1.12-1.33-1.34,0,0-7.91-3.14-20.75,0-.69.2-1.33.6-1.33,1.34V50.23a1.34,1.34,0,0,0,1.06,1.31s.1.06.56,0C49.15,49.3,56,51,57.53,51.46A1.85,1.85,0,0,0,58.1,51.55Zm-2.71-5.49L54.46,46a56.54,56.54,0,0,0-15.21.49h-.17a1,1,0,0,1-.17-2.07,58.44,58.44,0,0,1,15.71-.51l.92.07a1,1,0,1,1-.15,2.08Zm0-6.79-.92-.07a56.5,56.5,0,0,0-15.21.49h-.17a1,1,0,0,1-.17-2.07,58.4,58.4,0,0,1,15.71-.51l.92.07a1,1,0,1,1-.15,2.08Zm0-6.79-.92-.07a55.85,55.85,0,0,0-15.21.49h-.17a1,1,0,0,1-.17-2.07,58.47,58.47,0,0,1,15.72-.51l.91.07a1,1,0,1,1-.15,2.08Zm0-6.79-.92-.07a56.5,56.5,0,0,0-15.21.49h-.17a1,1,0,0,1-.17-2.07,58.4,58.4,0,0,1,15.71-.51l.92.07a1,1,0,1,1-.15,2.08Z" fill="#fff"/><path d="M12.47,51.46C14,51,20.85,49.3,32.6,51.51c.46.09.56,0,.56,0a1.34,1.34,0,0,0,1.06-1.31V21.17c0-.74-.64-1.14-1.33-1.34-12.84-3.14-20.75,0-20.75,0-.73.22-1.33.6-1.33,1.34V50.23a1.33,1.33,0,0,0,1.09,1.32A1.85,1.85,0,0,0,12.47,51.46Zm1-6.37a1,1,0,0,1,1-1.12l.92-.07a58.44,58.44,0,0,1,15.71.51,1,1,0,0,1-.17,2.07h-.17A56.54,56.54,0,0,0,15.54,46l-.92.07A1,1,0,0,1,13.5,45.1Zm0-6.79a1,1,0,0,1,1-1.12l.92-.07a58.4,58.4,0,0,1,15.71.51,1,1,0,0,1-.17,2.07h-.17a56.5,56.5,0,0,0-15.21-.49l-.92.07A1,1,0,0,1,13.5,38.31Zm0-6.79a1,1,0,0,1,1-1.12l.91-.07a58.47,58.47,0,0,1,15.72.51,1,1,0,0,1-.17,2.07h-.17a55.85,55.85,0,0,0-15.21-.49l-.92.07A1,1,0,0,1,13.5,31.52Zm0-6.79a1,1,0,0,1,1-1.12l.92-.07a58.4,58.4,0,0,1,15.71.51,1,1,0,0,1-.17,2.07h-.17a56.5,56.5,0,0,0-15.21-.49l-.92.07A1,1,0,0,1,13.5,24.73Z" fill="#fff"/></svg>