<svg xmlns="http://www.w3.org/2000/svg" viewBox="0 0 70 70">
	<title>icon media</title>
	<path d="M70,35A35,35,0,1,1,35,0,35,35,0,0,1,70,35" fill="#005984"/>
	<path d="M35,55.3c-11.2,0-20.3-9.1-20.3-20.3S23.8,14.7,35,14.7S55.3,23.8,55.3,35C55.3,46.2,46.2,55.3,35,55.3z M35,19.3c-8.7,0-15.7,7-15.7,15.7s7,15.7,15.7,15.7s15.7-7,15.7-15.7l0,0C50.7,26.3,43.7,19.3,35,19.3z" fill="#fff"/>
	<path d="M45.3,34.1l-13.5-8.4c-0.6-0.4-1.4-0.2-1.8,0.3c-0.1,0.2-0.2,0.5-0.2,0.7l0,0v16.9l0,0c0,0.7,0.6,1.3,1.3,1.3 c0.3,0,0.5-0.1,0.7-0.2l13.5-8.5c0.6-0.4,0.7-1.2,0.3-1.8C45.5,34.3,45.4,34.2,45.3,34.1L45.3,34.1z" fill="#fff"/>
</svg>