<svg xmlns="http://www.w3.org/2000/svg" viewBox="0 0 70 70"><title>icon speech bubble</title><path d="M70,35A35,35,0,1,1,35,0,35,35,0,0,1,70,35" fill="#005984"/><path d="M45.29,16.68H24.71A11.88,11.88,0,0,0,12.83,28.55V32.1A11.87,11.87,0,0,0,24,43.94l-1,9.24a.78.78,0,0,0,1.12.62L35.26,44h10A11.88,11.88,0,0,0,57.17,32.1V28.55A11.88,11.88,0,0,0,45.29,16.68ZM25.08,33.52a3.2,3.2,0,1,1,3.2-3.2A3.2,3.2,0,0,1,25.08,33.52Zm9.93,0a3.2,3.2,0,1,1,3.2-3.2A3.2,3.2,0,0,1,35,33.52Zm9.93,0a3.2,3.2,0,1,1,3.2-3.2A3.2,3.2,0,0,1,44.93,33.52Z" fill="#fff"/></svg>