<svg xmlns="http://www.w3.org/2000/svg" viewBox="0 0 70 70"><title>icon resources</title><circle cx="35" cy="35" r="35" fill="#005984"/><path d="M44.63,17.34H25.37A11.11,11.11,0,0,0,14.25,28.46v6.41A11.1,11.1,0,0,0,24.72,45.95l-.94,8.64a.73.73,0,0,0,1,.58L35.24,46h9.39A11.11,11.11,0,0,0,55.75,34.87V28.46A11.11,11.11,0,0,0,44.63,17.34ZM24,39.44a1.76,1.76,0,1,1,1.76-1.76A1.76,1.76,0,0,1,24,39.44Zm0-5.56a1.76,1.76,0,1,1,1.76-1.76A1.76,1.76,0,0,1,24,33.87Zm0-5.56a1.76,1.76,0,1,1,1.76-1.76A1.76,1.76,0,0,1,24,28.31ZM46.76,38.52H28.2a1,1,0,0,1,0-2H46.76a1,1,0,0,1,0,2Zm0-5.69H28.2a1,1,0,0,1,0-2H46.76a1,1,0,0,1,0,2Zm0-5.66H28.2a1,1,0,0,1,0-2H46.76a1,1,0,0,1,0,2Z" fill="#fff"/></svg>