<svg xmlns="http://www.w3.org/2000/svg" viewBox="0 0 70 70"><title>icon three gears</title><circle cx="35" cy="35" r="35" fill="#005984"/><path d="M38,24.31,36.28,24c0-.08,0-.15,0-.23s0-.2,0-.3,0-.19,0-.29,0-.27,0-.4l0-.24c0-.1-.05-.19-.07-.28s0-.27-.09-.4l0,0c0-.06,0-.11-.06-.16l0-.11,1.56-.9a1,1,0,0,0,.35-1.29L37,18.06a1,1,0,0,0-1.29-.35l-1.54.89c-.12-.14-.26-.26-.39-.38s-.22-.24-.34-.35l-.06,0a8.25,8.25,0,0,0-.74-.54c-.11-.08-.21-.16-.32-.24L33,15.32a1.06,1.06,0,0,0-.6-1.28l-1.41-.51a1,1,0,0,0-1.21.56l-.65,1.79c-.12,0-.23,0-.35,0h-.17c-.16,0-.31,0-.47,0h-.34c-.16,0-.31,0-.47,0h-.17c-.12,0-.23,0-.35,0l-.65-1.79a1,1,0,0,0-1.21-.56L23.5,14a1.06,1.06,0,0,0-.6,1.28L23.52,17c-.11.07-.21.16-.32.24a8.25,8.25,0,0,0-.74.54l-.06,0c-.12.11-.22.24-.34.35s-.26.25-.39.38l-1.54-.89a1,1,0,0,0-1.29.35l-.75,1.3a1,1,0,0,0,.35,1.29l1.56.9,0,.11c0,.05,0,.11-.06.16l0,0c0,.13-.05.26-.09.4s-.05.19-.07.28l0,.24c0,.13,0,.27,0,.4s0,.19,0,.29,0,.2,0,.3,0,.15,0,.23l-1.71.3a1,1,0,0,0-.77,1.1l.26,1.47a1,1,0,0,0,1.1.77l1.77-.31c.07.16.14.31.22.46s.11.25.18.38.19.28.28.43.24.36.37.54.13.19.2.28h0l-1.14,1.35a1,1,0,0,0,.12,1.33l1.15,1A1,1,0,0,0,22.93,33l1.2-1.43.29.14c.16.07.31.16.48.23a8.43,8.43,0,0,0,.86.25c.11,0,.21.08.33.1v1.91a1,1,0,0,0,.95.95h1.8a1,1,0,0,0,.95-.95V32.25c.11,0,.22-.07.33-.1a8.43,8.43,0,0,0,.86-.25c.17-.06.32-.15.48-.23l.29-.14L32.92,33a1,1,0,0,0,1.33.12l1.15-1a1,1,0,0,0,.12-1.33l-1.14-1.35h0c.07-.09.13-.19.2-.28s.25-.35.37-.54.19-.28.28-.43.12-.25.18-.38.15-.3.22-.46l1.77.31a1,1,0,0,0,1.1-.77l.26-1.47A1,1,0,0,0,38,24.31Zm-9.63,4.61-.43,0h0l-.43,0-.39-.06-.1,0-.46-.12-.33-.12L26,28.51l-.33-.16-.31-.18-.28-.2-.18-.14-.3-.26-.19-.21-.17-.19c-.09-.11-.18-.22-.26-.34l-.12-.2-.14-.23c-.07-.14-.14-.28-.2-.42l-.08-.22-.08-.23c0-.15-.09-.31-.12-.46s0-.16,0-.24v-.08c0-.08,0-.16,0-.24s0-.1,0-.16v-.09c0-.12,0-.24,0-.36s0-.29,0-.44,0-.07,0-.1,0-.28.08-.42.07-.24.11-.35l0-.14c.05-.14.11-.28.17-.41s.09-.17.14-.26l.1-.17c.08-.14.17-.27.27-.4L24.3,21l.14-.17c.11-.12.22-.23.34-.33l.17-.14.21-.17.36-.23.15-.08.32-.16.38-.15.13,0,.42-.12.35-.07.24,0,.34,0H28l.34,0,.24,0,.35.07.42.12.13,0,.38.15.32.16.15.08.36.23.21.17.17.14c.12.1.23.21.34.33l.14.17.16.2c.1.13.19.26.27.4l.09.17.14.26c.06.14.12.27.17.41l0,.14c0,.12.08.23.11.35s.06.28.08.42,0,.07,0,.1,0,.29,0,.44,0,.24,0,.36v.09c0,.05,0,.1,0,.16s0,.16,0,.23v.08c0,.08,0,.16,0,.24s-.07.31-.12.46l-.08.23-.08.22c-.06.15-.13.29-.2.42l-.14.23-.12.2c-.08.12-.17.23-.26.34l-.17.19-.19.21-.3.26-.18.14-.28.2-.31.18-.33.16-.21.09-.33.12-.46.12-.1,0Z" fill="#fff"/><path d="M38,45.73l-1.71-.3c0-.08,0-.15,0-.23s0-.2,0-.3,0-.19,0-.29,0-.27,0-.4l0-.24c0-.1-.05-.19-.07-.28s0-.27-.09-.4l0,0c0-.06,0-.11-.06-.16l0-.11,1.56-.9a1,1,0,0,0,.35-1.29L37,39.48a1,1,0,0,0-1.29-.35L34.18,40c-.12-.14-.26-.26-.39-.38s-.22-.24-.34-.35l-.06,0a8.25,8.25,0,0,0-.74-.54c-.11-.08-.21-.16-.32-.24L33,36.74a1.06,1.06,0,0,0-.6-1.28L30.95,35a1,1,0,0,0-1.21.56l-.65,1.79c-.12,0-.23,0-.35,0h-.17c-.16,0-.31,0-.47,0h-.34c-.16,0-.31,0-.47,0h-.17c-.12,0-.23,0-.35,0l-.65-1.79A1,1,0,0,0,24.91,35l-1.41.51a1.06,1.06,0,0,0-.6,1.28l.63,1.73c-.11.07-.21.16-.32.24a8.25,8.25,0,0,0-.74.54l-.06,0c-.12.11-.22.24-.34.35s-.26.25-.39.38l-1.54-.89a1,1,0,0,0-1.29.35l-.75,1.3a1,1,0,0,0,.35,1.29L20,43l0,.11c0,.05,0,.11-.06.16l0,0c0,.13-.05.26-.09.4s-.05.19-.07.28l0,.24c0,.13,0,.27,0,.4s0,.19,0,.29,0,.2,0,.3,0,.15,0,.23l-1.71.3a1,1,0,0,0-.77,1.1l.26,1.47a1,1,0,0,0,1.1.77l1.77-.31c.07.16.14.31.22.46s.11.25.18.38.19.28.28.43.24.36.37.54.13.19.2.28h0L20.33,52.2a1,1,0,0,0,.12,1.33l1.15,1a1,1,0,0,0,1.33-.12L24.13,53l.29.14c.16.07.31.16.48.23a8.43,8.43,0,0,0,.86.25c.11,0,.21.08.33.1v1.91a1,1,0,0,0,.95.95h1.8a1,1,0,0,0,.95-.95V53.67c.11,0,.22-.07.33-.1a8.43,8.43,0,0,0,.86-.25c.17-.06.32-.15.48-.23l.29-.14,1.2,1.43a1,1,0,0,0,1.33.12l1.15-1a1,1,0,0,0,.12-1.33l-1.14-1.35h0c.07-.09.13-.19.2-.28s.25-.35.37-.54.19-.28.28-.43.12-.25.18-.38.15-.3.22-.46l1.77.31a1,1,0,0,0,1.1-.77l.26-1.47A1,1,0,0,0,38,45.73Zm-9.63,4.61-.43,0h0l-.43,0-.39-.06-.1,0-.46-.12L26.21,50,26,49.93l-.33-.16-.31-.18-.28-.2-.18-.14-.3-.26-.19-.21-.17-.19c-.09-.11-.18-.22-.26-.34l-.12-.2-.14-.23c-.07-.14-.14-.28-.2-.42l-.08-.22L23.37,47c0-.15-.09-.31-.12-.46s0-.16,0-.24v-.08c0-.08,0-.16,0-.24s0-.1,0-.16v-.09c0-.12,0-.24,0-.36s0-.29,0-.44,0-.07,0-.1,0-.28.08-.42.07-.24.11-.35l0-.14c.05-.14.11-.28.17-.41s.09-.17.14-.26l.1-.17c.08-.14.17-.27.27-.4l.16-.19.14-.17c.11-.12.22-.23.34-.33l.17-.14.21-.17.36-.23.15-.08.32-.16.38-.15.13,0,.42-.12.35-.07.24,0,.34,0H28l.34,0,.24,0,.35.07.42.12.13,0,.38.15.32.16.15.08.36.23.21.17.17.14c.12.1.23.21.34.33l.14.17.16.2c.1.13.19.26.27.4l.09.17.14.26c.06.14.12.27.17.41l0,.14c0,.12.08.23.11.35s.06.28.08.42,0,.07,0,.1,0,.29,0,.44,0,.24,0,.36v.09c0,.05,0,.1,0,.16s0,.16,0,.23v.08c0,.08,0,.16,0,.24s-.07.31-.12.46l-.08.23-.08.22c-.06.15-.13.29-.2.42l-.14.23-.12.2c-.08.12-.17.23-.26.34l-.17.19-.19.21-.3.26-.18.14-.28.2-.31.18-.33.16-.21.09-.33.12-.46.12-.1,0Z" fill="#fff"/><path d="M56.32,35l-1.71-.3c0-.08,0-.15,0-.23s0-.2,0-.3,0-.19,0-.29,0-.27,0-.4l0-.24c0-.1-.05-.19-.07-.28s0-.27-.09-.4l0,0c0-.06,0-.11-.06-.16l0-.11,1.56-.9a1,1,0,0,0,.35-1.29l-.75-1.3A1,1,0,0,0,54,28.42l-1.54.89c-.12-.14-.26-.26-.39-.38s-.22-.24-.34-.35l-.06,0A8.25,8.25,0,0,0,51,28c-.11-.08-.21-.16-.32-.24L51.29,26a1.06,1.06,0,0,0-.6-1.28l-1.41-.51a1,1,0,0,0-1.21.56l-.65,1.79c-.12,0-.23,0-.35,0h-.17c-.16,0-.31,0-.47,0h-.34c-.16,0-.31,0-.47,0h-.17c-.12,0-.23,0-.35,0l-.65-1.79a1,1,0,0,0-1.21-.56l-1.41.51a1.06,1.06,0,0,0-.6,1.28l.63,1.73c-.11.07-.21.16-.32.24a8.25,8.25,0,0,0-.74.54l-.06,0c-.12.11-.22.24-.34.35s-.26.25-.39.38l-1.54-.89a1,1,0,0,0-1.29.35l-.75,1.3a1,1,0,0,0,.35,1.29l1.56.9,0,.11c0,.05,0,.11-.06.16l0,0c0,.13-.05.26-.09.4s-.05.19-.07.28l0,.24c0,.13,0,.27,0,.4s0,.19,0,.29,0,.2,0,.3,0,.15,0,.23l-1.71.3a1,1,0,0,0-.77,1.1l.26,1.47a1,1,0,0,0,1.1.77L38.54,38c.07.16.14.31.22.46s.11.25.18.38.19.28.28.43.24.36.37.54.13.19.2.28h0l-1.14,1.35a1,1,0,0,0,.12,1.33l1.15,1a1,1,0,0,0,1.33-.12l1.2-1.43.29.14c.16.07.31.16.48.23a8.43,8.43,0,0,0,.86.25c.11,0,.21.08.33.1v1.91a1,1,0,0,0,.95.95h1.8a1,1,0,0,0,.95-.95V43c.11,0,.22-.07.33-.1a8.43,8.43,0,0,0,.86-.25c.17-.06.32-.15.48-.23l.29-.14,1.2,1.43a1,1,0,0,0,1.33.12l1.15-1a1,1,0,0,0,.12-1.33l-1.14-1.35h0c.07-.09.13-.19.2-.28s.25-.35.37-.54.19-.28.28-.43.12-.25.18-.38.15-.3.22-.46l1.77.31a1,1,0,0,0,1.1-.77l.26-1.47A1,1,0,0,0,56.32,35Zm-9.63,4.61-.43,0h0l-.43,0-.39-.06-.1,0-.46-.12-.33-.12-.21-.09L44,39.06l-.31-.18-.28-.2-.18-.14-.3-.26-.19-.21-.17-.19c-.09-.11-.18-.22-.26-.34l-.12-.2-.14-.23c-.07-.14-.14-.28-.2-.42l-.08-.22-.08-.23c0-.15-.09-.31-.12-.46s0-.16,0-.24v-.08c0-.08,0-.16,0-.24s0-.1,0-.16V35c0-.12,0-.24,0-.36s0-.29,0-.44,0-.07,0-.1,0-.28.08-.42.07-.24.11-.35l0-.14c.05-.14.11-.28.17-.41s.09-.17.14-.26l.1-.17c.08-.14.17-.27.27-.4l.16-.19.14-.17c.11-.12.22-.23.34-.33l.17-.14.21-.17.36-.23.15-.08.32-.16.38-.15.13,0,.42-.12.35-.07.24,0,.34,0h.13l.34,0,.24,0,.35.07.42.12.13,0,.38.15.32.16.15.08.36.23.21.17.17.14c.12.1.23.21.34.33l.14.17.16.2c.1.13.19.26.27.4l.09.17.14.26c.06.14.12.27.17.41l0,.14c0,.12.08.23.11.35s.06.28.08.42,0,.07,0,.1,0,.29,0,.44,0,.24,0,.36v.09c0,.05,0,.1,0,.16s0,.16,0,.23v.08c0,.08,0,.16,0,.24s-.07.31-.12.46l-.08.23-.08.22c-.06.15-.13.29-.2.42l-.14.23-.12.2c-.08.12-.17.23-.26.34l-.17.19-.19.21-.3.26-.18.14-.28.2-.31.18-.33.16-.21.09-.33.12-.46.12-.1,0Z" fill="#fff"/></svg>