<svg xmlns="http://www.w3.org/2000/svg" viewBox="0 0 70 70"><title>icon clipboard</title><path d="M70,35A35,35,0,1,1,35,0,35,35,0,0,1,70,35" fill="#005984"/><path d="M28.7,20.08S22,22.49,22.58,25.39l18.85-4.8c-.86-2.84-7.92-1.74-7.92-1.74l-.76-3a2.48,2.48,0,1,0-4.81,1.22ZM30,15a1.24,1.24,0,1,1-.9,1.51A1.24,1.24,0,0,1,30,15Z" fill="#fff"/><path d="M52.57,46.8,45.16,17.72a3.07,3.07,0,0,0-3.68-2.18l-7,1.79,0,.1c.54,0,1.22-.09,1.94-.09,3.57,0,5.67,1,6.24,2.88a1.31,1.31,0,0,1-.93,1.64L22.9,26.66a1.3,1.3,0,0,1-1.6-1c-.66-3.14,3.6-5.41,5.85-6.38l0-.09-7,1.79a3,3,0,0,0-2.18,3.68l7.41,29.08A3,3,0,0,0,29,55.92l21.36-5.44A3,3,0,0,0,52.57,46.8Zm-28-14.71a.78.78,0,0,1,1-1.18l1.74,1.53,2.07-5.1a.78.78,0,0,1,1.45.59L28.36,34a.79.79,0,0,1-.55.47l-.18,0a.78.78,0,0,1-.52-.2Zm2.53,8.45a.78.78,0,0,1,1-1.18l1.73,1.53,2.07-5.1a.78.78,0,0,1,1.45.59L30.88,42.5a.78.78,0,0,1-.55.47l-.18,0a.79.79,0,0,1-.52-.2Zm8.82,4.29L33.41,51a.78.78,0,0,1-.55.47l-.18,0a.78.78,0,0,1-.52-.2L29.6,49a.78.78,0,0,1,1-1.18l1.74,1.53,2.07-5.1a.78.78,0,0,1,1.45.59Z" fill="#fff"/></svg>