<?xml version="1.0" encoding="utf-8"?>
<!-- Generator: Adobe Illustrator 18.0.0, SVG Export Plug-In . SVG Version: 6.00 Build 0)  -->
<!DOCTYPE svg PUBLIC "-//W3C//DTD SVG 1.1//EN" "http://www.w3.org/Graphics/SVG/1.1/DTD/svg11.dtd">
<svg version="1.1" id="Layer_1" xmlns="http://www.w3.org/2000/svg" xmlns:xlink="http://www.w3.org/1999/xlink" x="0px" y="0px"
	 viewBox="0 0 321.2 17.6" enable-background="new 0 0 321.2 17.6" xml:space="preserve">
<g>
	<g>
		<path fill="#FFFFFF" d="M0,17.2L3.5,0.5h2.6c1.7,0,2.9,0.3,3.7,0.9s1.2,1.5,1.2,2.8c0,1.2-0.3,2.1-0.9,2.9S8.5,8.4,7.5,8.6
			c0.8,0.3,1.4,0.7,1.8,1.2c0.4,0.6,0.6,1.3,0.6,2.1c0,0.7-0.1,1.4-0.3,2c-0.2,0.6-0.6,1.1-1,1.7c-0.5,0.6-1.2,1-1.9,1.2
			c-0.8,0.2-1.9,0.4-3.3,0.4H0z M2,15.7h1.9c1.3,0,2.3-0.3,3-1C7.6,14.1,8,13.2,8,12c0-1-0.3-1.8-0.9-2.2C6.5,9.3,5.5,9.1,4,9.1H3.4
			L2,15.7z M3.7,7.8c0.4,0,0.7,0.1,1,0.1c0.3,0,0.5,0,0.6,0c1.3,0,2.3-0.3,3-0.9C9,6.3,9.4,5.4,9.4,4.3c0-0.8-0.2-1.4-0.7-1.8
			C8.1,2,7.4,1.9,6.3,1.9H4.9L3.7,7.8z"/>
		<path fill="#FFFFFF" d="M14.5,0.5h1.7l-2.3,11c0,0.2-0.1,0.4-0.2,0.7c-0.2,0.9-0.3,1.6-0.3,2c0,0.6,0.2,1,0.6,1.4
			c0.4,0.3,0.9,0.5,1.6,0.5c0.9,0,1.6-0.3,2.1-0.9c0.5-0.6,0.9-1.6,1.2-3.1l2.5-11.6h1.7l-2.5,11.8c-0.4,1.9-1,3.3-1.8,4.1
			c-0.8,0.8-1.9,1.2-3.4,1.2c-1.2,0-2.1-0.3-2.7-0.9s-1-1.5-1-2.5c0-0.3,0-0.6,0.1-1c0.1-0.4,0.1-0.8,0.2-1.3L14.5,0.5z"/>
		<path fill="#FFFFFF" d="M22.6,17.2l3.6-16.7h1.7l-3.5,16.7H22.6z"/>
		<path fill="#FFFFFF" d="M27.4,17.2l3.5-16.7h1.7l-3.2,15.1h6.4l-0.3,1.6H27.4z"/>
		<path fill="#FFFFFF" d="M36.5,17.2l3.6-16.7h1.7c2,0,3.4,0.4,4.3,1.3C47,2.6,47.4,4,47.4,5.8c0,0.8-0.1,1.6-0.2,2.6
			s-0.4,1.9-0.7,2.9c-0.3,1-0.7,2-1.1,2.7c-0.4,0.8-0.8,1.4-1.3,1.8c-0.5,0.5-1.1,0.8-1.9,1c-0.7,0.2-1.9,0.3-3.6,0.3h-0.5H36.5z
			 M38.6,15.7h1.1c0.9,0,1.6-0.1,2.2-0.3c0.6-0.2,1-0.5,1.4-1c0.3-0.3,0.5-0.7,0.7-1.2c0.2-0.4,0.4-0.9,0.6-1.4
			c0.3-1.1,0.6-2.1,0.8-3.1c0.2-1,0.3-1.9,0.3-2.7c0-1.3-0.3-2.3-0.8-2.9c-0.5-0.6-1.3-1-2.4-1h-1L38.6,15.7z"/>
		<path fill="#FFFFFF" d="M47.5,17.2l3.6-16.7h1.7l-3.5,16.7H47.5z"/>
		<path fill="#FFFFFF" d="M52.3,17.2l3.5-16.7h2.6l2,12c0,0.3,0.1,0.6,0.1,0.9c0,0.3,0,0.6,0,0.9v0.4c0-0.4,0.1-0.9,0.1-1.2
			c0-0.4,0.1-0.7,0.1-1l2.5-11.9h1.7l-3.6,16.7h-1.7L57.1,1.6l-3.3,15.6H52.3z"/>
		<path fill="#FFFFFF" d="M71.9,16.1c-0.4,0.5-0.9,0.9-1.4,1.1c-0.5,0.3-1.1,0.4-1.7,0.4c-1.1,0-2-0.4-2.7-1.3c-0.6-0.9-1-2.1-1-3.7
			c0-1.6,0.2-3.2,0.6-4.8s0.9-3,1.5-4.3c0.6-1.1,1.2-1.9,2-2.5s1.6-0.8,2.5-0.8c1.1,0,2,0.4,2.7,1.2c0.6,0.8,1,1.8,1,3.2
			c0,0.2,0,0.4,0,0.5c0,0.2,0,0.4-0.1,0.5h-1.7c0-0.2,0-0.4,0.1-0.6c0-0.2,0-0.4,0-0.5c0-0.9-0.2-1.6-0.5-2.1
			c-0.3-0.5-0.8-0.7-1.5-0.7c-0.6,0-1.2,0.3-1.8,0.8c-0.5,0.5-1,1.3-1.4,2.3c-0.5,1.2-0.9,2.6-1.2,4c-0.3,1.4-0.4,2.8-0.4,4.1
			c0,1.1,0.2,1.9,0.5,2.4c0.3,0.5,0.9,0.8,1.6,0.8c0.9,0,1.7-0.4,2.3-1.3c0.6-0.9,1.1-2.1,1.4-3.8h-2.3l0.3-1.4h4.1l-1.7,7.8H72
			L71.9,16.1z"/>
		<path fill="#FFFFFF" d="M79.3,17.2l7-16.7h2.4v16.7h-1.6v-4.9h-4.2l-2,4.9H79.3z M83.5,10.9h3.6V1.8L83.5,10.9z"/>
		<path fill="#FFFFFF" d="M95.4,12.6l2.6,0.1V13c0,0.7,0.2,1.2,0.5,1.6s0.7,0.6,1.3,0.6c0.5,0,1-0.2,1.3-0.6
			c0.4-0.4,0.5-0.9,0.5-1.6c0-0.4-0.1-1-0.4-1.5c-0.3-0.6-0.8-1.4-1.5-2.4C98.9,7.9,98.3,7,98,6.3c-0.3-0.7-0.5-1.4-0.5-2.1
			c0-1.2,0.4-2.2,1.2-3c0.8-0.8,1.8-1.2,3.1-1.2c1.2,0,2.2,0.4,2.9,1.2c0.7,0.8,1,1.8,1,3.2v0.3l-2.5-0.1c0-0.7-0.1-1.2-0.4-1.6
			c-0.3-0.4-0.7-0.6-1.2-0.6c-0.5,0-0.9,0.2-1.2,0.5s-0.5,0.7-0.5,1.2c0,0.5,0.4,1.3,1.1,2.3c0.3,0.4,0.5,0.6,0.6,0.8
			c0.1,0.1,0.2,0.3,0.3,0.5c1.5,2.2,2.3,3.9,2.3,5.1c0,1.4-0.4,2.6-1.3,3.5c-0.9,0.9-2,1.3-3.4,1.3c-1.3,0-2.3-0.4-3.1-1.2
			c-0.8-0.8-1.1-1.9-1.1-3.3c0-0.1,0-0.2,0-0.3C95.4,12.7,95.4,12.7,95.4,12.6z"/>
		<path fill="#FFFFFF" d="M105.5,17.2l3.6-16.9h3.6l0.1,8.7v0.4c0,0.5,0,1-0.1,1.5c0,0.5-0.1,1.1-0.2,1.6c0.2-0.7,0.3-1.3,0.5-1.8
			c0.2-0.6,0.4-1.1,0.6-1.6l3.9-8.8h3.5l-3.6,16.9h-2.4l2.6-11.5c0-0.1,0.2-0.8,0.6-2.1l0.2-0.7c-0.3,0.8-0.7,1.7-1,2.5
			c0,0.1-0.1,0.2-0.1,0.2l-5.2,11.6h-1.4l-0.1-11.4c0-0.5,0-1,0-1.5c0-0.5,0-0.9,0.1-1.4c-0.1,0.5-0.1,1-0.2,1.5
			c-0.1,0.5-0.1,0.9-0.2,1.3L108,17.2H105.5z"/>
		<path fill="#FFFFFF" d="M119.3,17.2L126,0.3h3v16.9h-2.7l0.1-3.7h-3l-1.4,3.7H119.3z M124.3,10.9h2.3l0.3-7.6L124.3,10.9z"/>
		<path fill="#FFFFFF" d="M130.3,17.2l3.6-16.9h2.8c1.8,0,3.1,0.4,3.9,1.1c0.9,0.7,1.3,1.8,1.3,3.2c0,1.3-0.3,2.4-0.9,3.3
			c-0.6,0.9-1.4,1.6-2.4,1.9l1.1,7.4h-2.7l-0.9-7.2c-0.1,0-0.2,0-0.4,0c-0.2,0-0.3,0-0.4,0c-0.1,0-0.2,0-0.4,0c-0.2,0-0.3,0-0.3,0
			l-1.5,7.2H130.3z M137.2,2.7h-1l-1.1,5h1.4c0.9,0,1.5-0.3,2-0.8c0.5-0.5,0.8-1.2,0.8-2.1c0-0.7-0.2-1.2-0.5-1.5
			S137.9,2.7,137.2,2.7z"/>
		<path fill="#FFFFFF" d="M143.8,17.2l3-14.3h-3.1l0.5-2.5h8.8l-0.5,2.5h-2.9l-3,14.3H143.8z"/>
		<path fill="#FFFFFF" d="M159.4,17.2h-8.1l3.6-16.9h7.9l-0.5,2.5h-5l-1,4.5h3.7l-0.5,2.4h-3.7l-1.1,5h5.2L159.4,17.2z"/>
		<path fill="#FFFFFF" d="M161.5,17.2l3.6-16.9h2.8c1.8,0,3.1,0.4,3.9,1.1c0.9,0.7,1.3,1.8,1.3,3.2c0,1.3-0.3,2.4-0.9,3.3
			c-0.6,0.9-1.4,1.6-2.4,1.9l1.1,7.4h-2.7l-0.9-7.2c-0.1,0-0.2,0-0.4,0c-0.2,0-0.3,0-0.4,0c-0.1,0-0.2,0-0.4,0c-0.2,0-0.3,0-0.3,0
			l-1.5,7.2H161.5z M168.5,2.7h-1l-1.1,5h1.4c0.9,0,1.5-0.3,2-0.8c0.5-0.5,0.8-1.2,0.8-2.1c0-0.7-0.2-1.2-0.5-1.5
			S169.2,2.7,168.5,2.7z"/>
		<path fill="#FFFFFF" d="M178,17.2l3.5-16.7h7.8L189,2.1h-6l-1.2,5.8h4.5l-0.3,1.4h-4.5l-1.4,6.4h6.4l-0.3,1.5H178z"/>
		<path fill="#FFFFFF" d="M188,17.2l3.5-16.7h2.6l2,12c0,0.3,0.1,0.6,0.1,0.9c0,0.3,0,0.6,0,0.9v0.4c0-0.4,0.1-0.9,0.1-1.2
			s0.1-0.7,0.1-1l2.5-11.9h1.7L197,17.2h-1.7l-2.5-15.6l-3.3,15.6H188z"/>
		<path fill="#FFFFFF" d="M200.1,17.2l3.5-16.7h7.8l-0.3,1.6h-6l-1.2,5.8h4.5L208,9.3h-4.5l-1.4,6.4h6.4l-0.3,1.5H200.1z"/>
		<path fill="#FFFFFF" d="M210.1,17.2l3.5-16.7h2.7c1.6,0,2.8,0.3,3.6,1c0.8,0.7,1.2,1.6,1.2,3c0,1.2-0.3,2.2-0.9,3
			c-0.6,0.8-1.5,1.4-2.7,1.7l1.1,8h-1.7L216,9.4c-0.3,0-0.7,0-1,0.1c-0.3,0-0.6,0-0.9,0h-0.6l-1.6,7.8H210.1z M213.7,8h1.6
			c1.4,0,2.4-0.3,3.1-0.9c0.7-0.6,1-1.5,1-2.7c0-0.9-0.2-1.5-0.7-1.9c-0.5-0.4-1.3-0.6-2.4-0.6h-1.3L213.7,8z"/>
		<path fill="#FFFFFF" d="M228.6,16.1c-0.4,0.5-0.9,0.9-1.4,1.1c-0.5,0.3-1.1,0.4-1.7,0.4c-1.1,0-2-0.4-2.7-1.3
			c-0.6-0.9-1-2.1-1-3.7c0-1.6,0.2-3.2,0.6-4.8c0.4-1.6,0.9-3,1.5-4.3c0.6-1.1,1.2-1.9,2-2.5s1.6-0.8,2.5-0.8c1.1,0,2,0.4,2.7,1.2
			c0.6,0.8,1,1.8,1,3.2c0,0.2,0,0.4,0,0.5c0,0.2,0,0.4-0.1,0.5h-1.7c0-0.2,0-0.4,0.1-0.6c0-0.2,0-0.4,0-0.5c0-0.9-0.2-1.6-0.5-2.1
			c-0.3-0.5-0.8-0.7-1.5-0.7c-0.6,0-1.2,0.3-1.8,0.8s-1,1.3-1.4,2.3c-0.5,1.2-0.9,2.6-1.2,4c-0.3,1.4-0.4,2.8-0.4,4.1
			c0,1.1,0.2,1.9,0.5,2.4c0.3,0.5,0.9,0.8,1.6,0.8c0.9,0,1.7-0.4,2.3-1.3c0.6-0.9,1.1-2.1,1.4-3.8h-2.3l0.3-1.4h4.1l-1.7,7.8h-1.1
			L228.6,16.1z"/>
		<path fill="#FFFFFF" d="M233.5,17.2l1.6-7.3l-1.9-9.4h1.7l1.5,7.6l4.6-7.6h1.8l-6,9.9l-1.4,6.9H233.5z"/>
		<path fill="#FFFFFF" d="M245.3,17.2l3.5-16.7h7.8l-0.4,1.6h-6L249,7.9h4.5l-0.3,1.4h-4.5l-1.7,7.9H245.3z"/>
		<path fill="#FFFFFF" d="M258.6,0.5h1.7l-2.3,11c0,0.2-0.1,0.4-0.2,0.7c-0.2,0.9-0.3,1.6-0.3,2c0,0.6,0.2,1,0.6,1.4
			c0.4,0.3,0.9,0.5,1.6,0.5c0.9,0,1.6-0.3,2.1-0.9c0.5-0.6,0.9-1.6,1.2-3.1l2.5-11.6h1.7l-2.5,11.8c-0.4,1.9-1,3.3-1.8,4.1
			c-0.8,0.8-1.9,1.2-3.4,1.2c-1.2,0-2.1-0.3-2.7-0.9s-1-1.5-1-2.5c0-0.3,0-0.6,0.1-1c0.1-0.4,0.1-0.8,0.2-1.3L258.6,0.5z"/>
		<path fill="#FFFFFF" d="M268.8,17.2L272.1,2h-3.5l0.3-1.5h8.4L277,2h-3.2l-3.2,15.2H268.8z"/>
		<path fill="#FFFFFF" d="M279,0.5h1.7l-2.3,11c0,0.2-0.1,0.4-0.2,0.7c-0.2,0.9-0.3,1.6-0.3,2c0,0.6,0.2,1,0.6,1.4
			c0.4,0.3,0.9,0.5,1.6,0.5c0.9,0,1.6-0.3,2.1-0.9c0.5-0.6,0.9-1.6,1.2-3.1L286,0.5h1.7l-2.5,11.8c-0.4,1.9-1,3.3-1.8,4.1
			c-0.8,0.8-1.9,1.2-3.4,1.2c-1.2,0-2.1-0.3-2.7-0.9c-0.7-0.6-1-1.5-1-2.5c0-0.3,0-0.6,0.1-1c0.1-0.4,0.1-0.8,0.2-1.3L279,0.5z"/>
		<path fill="#FFFFFF" d="M287.3,17.2l3.5-16.7h2.7c1.6,0,2.8,0.3,3.6,1c0.8,0.7,1.2,1.6,1.2,3c0,1.2-0.3,2.2-0.9,3
			c-0.6,0.8-1.5,1.4-2.7,1.7l1.1,8h-1.7l-1.1-7.8c-0.3,0-0.7,0-1,0.1c-0.3,0-0.6,0-0.9,0h-0.6l-1.6,7.8H287.3z M290.9,8h1.6
			c1.4,0,2.4-0.3,3.1-0.9c0.7-0.6,1-1.5,1-2.7c0-0.9-0.2-1.5-0.7-1.9c-0.5-0.4-1.3-0.6-2.4-0.6h-1.3L290.9,8z"/>
		<path fill="#FFFFFF" d="M298.3,17.2l3.5-16.7h7.8l-0.3,1.6h-6L302,7.8h4.5l-0.3,1.4h-4.5l-1.4,6.4h6.4l-0.3,1.5H298.3z"/>
	</g>
	<g>
		<path fill="#FFFFFF" d="M310.5,5.7l0.7,0c0,0,0,0,0,0.1c0,0,0,0.1,0,0.1c0,0.4,0.1,0.7,0.3,0.9c0.2,0.2,0.4,0.3,0.7,0.3
			c0.4,0,0.7-0.1,0.9-0.4c0.2-0.2,0.3-0.6,0.3-0.9c0-0.2,0-0.5-0.1-0.7c-0.1-0.2-0.2-0.4-0.4-0.6c-0.1-0.1-0.2-0.2-0.3-0.3
			c-0.4-0.4-0.7-0.7-0.8-1c-0.1-0.2-0.2-0.3-0.2-0.5c0-0.2-0.1-0.3-0.1-0.5c0-0.5,0.2-0.9,0.5-1.2c0.3-0.3,0.7-0.5,1.2-0.5
			c0.5,0,0.9,0.1,1.2,0.4c0.3,0.3,0.4,0.7,0.4,1.2c0,0.1,0,0.1,0,0.2c0,0,0,0.1,0,0.1l-0.6,0v0c0-0.4-0.1-0.8-0.2-1
			c-0.2-0.2-0.4-0.3-0.7-0.3c-0.3,0-0.6,0.1-0.8,0.3s-0.3,0.5-0.3,0.8c0,0.2,0,0.3,0.1,0.5c0.1,0.2,0.2,0.3,0.3,0.5
			c0.1,0.1,0.2,0.2,0.3,0.3c0.5,0.5,0.8,0.8,0.9,1c0.1,0.2,0.2,0.4,0.3,0.6c0.1,0.2,0.1,0.4,0.1,0.7c0,0.6-0.2,1-0.5,1.4
			s-0.8,0.5-1.4,0.5c-0.5,0-0.9-0.2-1.2-0.5c-0.3-0.3-0.4-0.8-0.4-1.3C310.5,5.8,310.5,5.8,310.5,5.7C310.5,5.7,310.5,5.7,310.5,5.7
			z"/>
		<path fill="#FFFFFF" d="M314.8,7.5l1.5-7h1.1l0.2,4.9c0,0,0,0.1,0,0.2c0,0.1,0,0.1,0,0.2c0,0.1,0,0.3,0,0.5l0,0
			c0-0.2,0.1-0.3,0.1-0.5c0-0.1,0.1-0.3,0.1-0.4l2.2-4.9h1.2l-1.5,7H319l1.4-6.5l-3,6.5H317L316.8,1l-1.4,6.5H314.8z"/>
	</g>
</g>
</svg>
