<svg width="21" height="21" viewBox="0 0 21 21" fill="none" xmlns="http://www.w3.org/2000/svg">
<path d="M9.3 20.09H1.83C1.3716 20.09 1 19.7184 1 19.26V1.83C1 1.3716 1.3716 1 1.83 1H12.8607C13.0825 1.00092 13.2947 1.09059 13.45 1.249L16.521 4.32C16.6767 4.47562 16.7641 4.6867 16.7642 4.90681V7.64" stroke="#32B373" stroke-linecap="round" stroke-linejoin="round"/>
<path d="M4.32007 11.3019L6.7694 8.85009C7.01123 8.60877 7.38962 8.57127 7.6741 8.76045L8.83029 9.53152C9.12187 9.72569 9.51107 9.68077 9.75076 9.42528L12.0233 7.00085" stroke="#32B373" stroke-linecap="round" stroke-linejoin="round"/>
<path d="M4.31763 5.15247V13.4525H7.63763" stroke="#32B373" stroke-linecap="round" stroke-linejoin="round"/>
<path d="M15.1074 11.7925V16.7725" stroke="#32B373" stroke-linecap="round" stroke-linejoin="round"/>
<path d="M17.5974 14.2825H12.6174" stroke="#32B373" stroke-linecap="round" stroke-linejoin="round"/>
<path d="M15.5515 20.007L16.0113 19.8327C18.1942 19.0027 20.0874 16.9078 20.0874 14.5722V11.756C20.0876 11.4108 19.8828 11.0984 19.5662 10.9609C18.1336 10.4255 16.6185 10.1446 15.0892 10.1309C13.5717 10.1438 12.0684 10.4248 10.6487 10.9609C10.3321 11.0984 10.1273 11.4108 10.1274 11.756V14.5722C10.1274 16.9078 11.985 19.0011 14.1679 19.8327L14.6269 20.007C14.9246 20.1207 15.2538 20.1207 15.5515 20.007Z" stroke="#32B373" stroke-linecap="round" stroke-linejoin="round"/>
</svg>
