<svg width="12" height="15" viewBox="0 0 12 15" fill="none" xmlns="http://www.w3.org/2000/svg">
<path d="M0 12.9909C0 12.9909 0 12.1414 0 12.0286C0 10.783 1.86721 9.6503 3.90697 9.25208C3.90697 9.25208 4.53085 8.91359 4.3605 8.28972C3.73662 7.4977 3.56627 6.64817 3.56627 6.64817C3.45344 6.59065 3.2831 6.47782 3.17027 6.36499C2.99992 6.13712 2.77426 5.45794 2.83178 4.9491C2.88709 4.49557 2.99992 4.66592 3.05744 4.55309C2.60391 3.53321 2.83178 2.23015 3.34062 1.26779C4.41581 -0.601631 6.68123 -0.0352751 7.02193 0.64391C9.17453 0.247903 9.11701 3.64604 8.77852 4.49557C8.77852 4.49557 8.94666 4.55309 8.94666 5.34511C8.89135 6.19464 8.21216 6.70348 8.21216 6.70348C8.21216 6.93135 7.92899 7.61053 7.47546 8.23441C7.07945 9.02642 7.87146 9.19677 7.87146 9.19677C9.91123 9.59278 11.7784 10.7255 11.7784 11.971C11.7784 12.0839 11.7784 12.9334 11.7784 12.9334C11.7784 13.7276 8.721 14.5772 5.88922 14.5772C3.11496 14.5772 0 14.294 0 12.9909Z" fill="#D3D3D3"/>
</svg>
