<svg width="18" height="11" viewBox="0 0 18 11" fill="none" xmlns="http://www.w3.org/2000/svg">
<path d="M7.96389 7.13173L7.10168 7.68292L8.06638 8.02435C9.35419 8.48013 10.4504 9.32169 11.1945 10.4198C11.1974 10.4244 11.1988 10.4286 11.1995 10.4321C11.2002 10.4359 11.2001 10.4397 11.1992 10.4436C11.1975 10.451 11.1915 10.4634 11.1749 10.4738C11.1576 10.4846 11.1337 10.4898 11.1094 10.4851C11.0864 10.4806 11.0711 10.4689 11.0633 10.4585C10.4965 9.62329 9.72323 8.939 8.81506 8.46581C7.9051 7.99168 6.88749 7.74393 5.85444 7.74393C4.82139 7.74393 3.80378 7.99168 2.89382 8.46581C1.98378 8.93998 1.20924 9.62612 0.642114 10.4637L0.642079 10.4637L0.638485 10.4691C0.635017 10.4744 0.629592 10.4803 0.621623 10.4857C0.613611 10.4911 0.603522 10.4955 0.591789 10.498C0.580043 10.5005 0.56771 10.5007 0.555785 10.4986C0.543881 10.4965 0.53347 10.4923 0.525065 10.487C0.516704 10.4818 0.510883 10.4758 0.507087 10.4705C0.50333 10.4652 0.501466 10.4603 0.500629 10.4563C0.499799 10.4524 0.499792 10.4485 0.500601 10.4446C0.501417 10.4407 0.503251 10.4358 0.506964 10.4305L0.507019 10.4306L0.511604 10.4238C1.25584 9.32375 2.35312 8.48068 3.6425 8.02435L4.6072 7.68292L3.74499 7.13173C3.06679 6.69817 2.55564 6.06904 2.28299 5.34025C2.01048 4.61179 1.98942 3.81937 2.22263 3.0789C2.45593 2.33814 2.93252 1.68527 3.58616 1.21935C4.2401 0.753221 5.0354 0.5 5.85444 0.5C6.67349 0.5 7.46878 0.753221 8.12272 1.21935C8.77637 1.68527 9.25295 2.33814 9.48625 3.0789C9.71946 3.81937 9.6984 4.61179 9.42589 5.34025C9.15324 6.06904 8.64209 6.69817 7.96389 7.13173ZM2.2066 4.12358L2.2066 4.12417C2.20772 5.06466 2.59746 5.96202 3.28332 6.62061C3.96848 7.27855 4.8933 7.64526 5.8539 7.6463H5.85444C6.57151 7.6463 7.27403 7.44221 7.8733 7.05771C8.47276 6.67308 8.94314 6.12429 9.22177 5.47836C9.50051 4.83218 9.57379 4.11988 9.4314 3.43245C9.28903 2.74519 8.9382 2.11679 8.42661 1.62554C7.91524 1.13449 7.26613 0.802231 6.56236 0.667807C5.85866 0.533396 5.12906 0.602218 4.46502 0.866341C3.80084 1.13052 3.22991 1.57918 2.82669 2.15865C2.42329 2.73839 2.2066 3.42222 2.2066 4.12358ZM12.1501 7.6463L12.1506 7.6463C12.6846 7.64582 13.2126 7.5321 13.697 7.31258C14.1815 7.09303 14.6112 6.77268 14.9545 6.37309C15.2979 5.97343 15.5463 5.50447 15.6805 4.99926C15.8148 4.49398 15.8312 3.96612 15.7285 3.45381C15.6257 2.94156 15.4067 2.45881 15.0884 2.03977C14.7702 1.62082 14.3607 1.27613 13.8904 1.02906C13.4201 0.782013 12.8998 0.63827 12.3667 0.607233C11.8336 0.576196 11.2995 0.658552 10.8023 0.848938L10.8022 0.848758L10.7894 0.854079C10.7791 0.858367 10.7673 0.860887 10.7548 0.860988C10.7423 0.86109 10.7304 0.858761 10.7199 0.854607C10.7094 0.850464 10.7013 0.844869 10.6954 0.839148C10.6895 0.833472 10.6861 0.827876 10.6842 0.823252C10.6823 0.818685 10.6816 0.814543 10.6817 0.810853C10.6818 0.807161 10.6826 0.802912 10.6848 0.798196C10.687 0.793423 10.6908 0.787711 10.6971 0.782038C10.7035 0.776322 10.7121 0.770899 10.7229 0.767074L10.723 0.76723L10.735 0.762632C11.6092 0.427821 12.5827 0.415714 13.4659 0.728839C14.3488 1.04185 15.0744 1.65579 15.5072 2.44658C15.9398 3.23672 16.0514 4.15037 15.8229 5.01285C15.5942 5.87579 15.0393 6.63206 14.2591 7.13201L13.3986 7.68338L14.3621 8.02435C15.6514 8.48068 16.7487 9.32375 17.4929 10.4238L17.4934 10.4245C17.497 10.4298 17.4987 10.4345 17.4995 10.4384C17.5002 10.4422 17.5002 10.446 17.4993 10.45C17.4977 10.4574 17.4917 10.4699 17.4749 10.4804C17.4575 10.4912 17.4333 10.4964 17.4089 10.4915C17.3847 10.4866 17.3693 10.4738 17.362 10.4631L16.9484 10.744L17.3627 10.4641C16.7961 9.62581 16.0215 8.93925 15.1112 8.4652C14.2009 7.99119 13.1828 7.74415 12.1495 7.74548L12.1501 8.24548V7.74548C12.1245 7.74548 12.1039 7.73553 12.0917 7.72386C12.0803 7.71285 12.0778 7.70235 12.0778 7.69589C12.0778 7.68943 12.0803 7.67893 12.0917 7.66792C12.1039 7.65625 12.1245 7.6463 12.1501 7.6463Z" stroke="#2F2E7A"/>
</svg>
