<svg width="22" height="21" viewBox="0 0 22 21" fill="none" xmlns="http://www.w3.org/2000/svg">
<path d="M15.25 1C14.2007 1 13.35 1.85066 13.35 2.9C13.3512 3.5776 13.7132 4.20329 14.3 4.54209V5.75H11.45V3.85L11.4519 2.47695C11.452 2.13821 11.2717 1.82503 10.9787 1.65498C10.2978 1.25961 9.53911 1.04715 8.77441 1.0167C8.51952 1.00655 8.26332 1.01587 8.00996 1.04639C6.99654 1.16846 6.01736 1.61584 5.2416 2.3916C4.9369 2.6963 4.70063 3.03362 4.51426 3.38984L4.48643 3.375C3.90985 4.37317 3.76179 5.49599 3.94648 6.55527C2.21172 7.52918 1 9.32455 1 11.45C1 13.1788 1.84216 14.6686 3.05771 15.7102C3.50883 18.1305 5.57661 20 8.125 20C9.19615 20 10.1996 19.6723 11.0288 19.1168C11.2918 18.9405 11.4498 18.6448 11.45 18.3282V17.15V15.25H14.3V16.4561C13.7126 16.7952 13.3505 17.4217 13.35 18.1C13.35 19.1493 14.2007 20 15.25 20C16.2993 20 17.15 19.1493 17.15 18.1C17.1488 17.4224 16.7868 16.7967 16.2 16.4579V14.3C16.1999 13.7754 15.7746 13.3501 15.25 13.35H11.45V11.45H17.4079C17.7467 12.0368 18.3724 12.3988 19.05 12.4C20.0993 12.4 20.95 11.5493 20.95 10.5C20.95 9.45066 20.0993 8.6 19.05 8.6C18.3717 8.60054 17.7452 8.9626 17.4061 9.55H11.45V7.65H15.25C15.7746 7.64995 16.1999 7.22465 16.2 6.7V4.54395C16.7874 4.20481 17.1495 3.57827 17.15 2.9C17.15 1.85066 16.2993 1 15.25 1ZM8.57773 2.92412C8.90711 2.95651 9.22997 3.08044 9.55 3.19873V3.85V6.54043C9.53304 6.64302 9.53304 6.7477 9.55 6.85029V8.60186H9.54443C9.54571 9.65981 8.70915 10.4987 7.65186 10.5L7.65371 12.4C8.34636 12.3991 8.98947 12.1951 9.55 11.8656V14.1404C9.53304 14.243 9.53304 14.3477 9.55 14.4503V17.15V17.6677C9.10761 17.8869 8.65475 18.1 8.125 18.1C6.41158 18.1 5.03716 16.8196 4.84268 15.1591C4.81215 14.8975 4.6744 14.6603 4.4623 14.5041C3.51572 13.8083 2.9 12.7107 2.9 11.45C2.9 10.1189 3.5884 8.97334 4.62002 8.29756C5.01625 8.92102 5.54422 9.47069 6.225 9.86357L7.175 8.21777C6.58571 7.87769 6.1751 7.36095 5.94854 6.77793C5.94223 6.75165 5.9348 6.72565 5.92627 6.7C5.79269 6.32233 5.73778 5.92359 5.76484 5.53105C5.77194 5.42821 5.79111 5.32652 5.80938 5.2249C5.82283 5.15485 5.83686 5.08476 5.85576 5.01523C5.87452 4.94305 5.89239 4.8708 5.91699 4.8C5.97143 4.64822 6.0372 4.49838 6.11924 4.35283C6.24284 4.13271 6.39645 3.92347 6.58496 3.73496C7.05465 3.26527 7.63975 2.99723 8.24561 2.92598C8.35676 2.9129 8.46794 2.91332 8.57773 2.92412Z" stroke="white" stroke-width="0.7"/>
</svg>
