<svg width="18" height="18" viewBox="0 0 18 18" fill="none" xmlns="http://www.w3.org/2000/svg">
<path d="M8.03778 17.1869H1.70378C1.31509 17.1869 1 16.8718 1 16.4831V1.70378C1 1.31509 1.31509 1 1.70378 1H11.057C11.2451 1.00078 11.425 1.07681 11.5567 1.21113L14.1607 3.81511C14.2926 3.94707 14.3668 4.12605 14.3669 4.31268V6.63023" stroke="#2F2E7A" stroke-linecap="round" stroke-linejoin="round"/>
<path d="M3.81494 9.73526L5.89179 7.6563C6.09684 7.45167 6.41769 7.41988 6.65891 7.58029L7.63927 8.2341C7.88652 8.39874 8.21653 8.36065 8.41976 8.14402L10.3467 6.08828" stroke="#2F2E7A" stroke-linecap="round" stroke-linejoin="round"/>
<path d="M3.81299 4.52098V11.5588H6.6281" stroke="#2F2E7A" stroke-linecap="round" stroke-linejoin="round"/>
<path d="M12.9619 10.1512V14.3739" stroke="#2F2E7A" stroke-linecap="round" stroke-linejoin="round"/>
<path d="M15.0733 12.2626H10.8506" stroke="#2F2E7A" stroke-linecap="round" stroke-linejoin="round"/>
<path d="M13.3384 17.1166L13.7283 16.9688C15.5793 16.265 17.1846 14.4886 17.1846 12.5082V10.1203C17.1847 9.82758 17.0111 9.56271 16.7426 9.44607C15.5279 8.99211 14.2432 8.75394 12.9464 8.74229C11.6597 8.75328 10.3851 8.99154 9.18123 9.44607C8.91276 9.56271 8.73913 9.82758 8.73926 10.1203V12.5082C8.73926 14.4886 10.3143 16.2636 12.1653 16.9688L12.5544 17.1166C12.8069 17.213 13.086 17.213 13.3384 17.1166Z" stroke="#2F2E7A" stroke-linecap="round" stroke-linejoin="round"/>
</svg>
