<svg width="18" height="16" viewBox="0 0 18 16" fill="none" xmlns="http://www.w3.org/2000/svg">
<path d="M8.99645 15L8.61262 14.64C7.26545 13.3766 5.43838 12.6667 3.53327 12.6667H1.7108C1.31823 12.6667 1 12.3682 1 12V1.66667C1 1.29848 1.31823 1 1.7108 1H3.02008C5.4216 1.00025 7.66417 2.12596 8.99645 4V15Z" stroke="#2F2E7A" stroke-width="1.245" stroke-linecap="round" stroke-linejoin="round"/>
<path d="M9.00342 15L9.38725 14.64C10.7344 13.3766 12.5615 12.6667 14.4666 12.6667H16.2891C16.6816 12.6667 16.9999 12.3682 16.9999 12V1.66667C16.9999 1.29848 16.6816 1 16.2891 1H14.9798C12.5783 1.00025 10.3357 2.12596 9.00342 4V15Z" stroke="#2F2E7A" stroke-width="1.245" stroke-linecap="round" stroke-linejoin="round"/>
<path d="M3.12256 4.15808C4.46562 4.05594 5.80298 4.41094 6.88977 5.15808" stroke="#2F2E7A" stroke-width="1.245" stroke-linecap="round" stroke-linejoin="round"/>
<path d="M3.12256 6.82461C4.46562 6.72247 5.80298 7.07747 6.88977 7.82461" stroke="#2F2E7A" stroke-width="1.245" stroke-linecap="round" stroke-linejoin="round"/>
<path d="M3.12256 9.4915C4.46559 9.38972 5.80281 9.74468 6.88977 10.4915" stroke="#2F2E7A" stroke-width="1.245" stroke-linecap="round" stroke-linejoin="round"/>
<path d="M13.8901 5.50003H12.445C11.9882 5.50033 11.5958 5.80429 11.5091 6.22492C11.4224 6.64555 11.6659 7.06478 12.0896 7.2247L13.5567 7.77536C13.9805 7.93528 14.2239 8.35451 14.1372 8.77514C14.0505 9.19577 13.6581 9.49973 13.2013 9.50003H11.7577" stroke="#2F2E7A" stroke-width="1.245" stroke-linecap="round" stroke-linejoin="round"/>
<path d="M12.8276 5.49677V4.99677" stroke="#2F2E7A" stroke-width="1.245" stroke-linecap="round" stroke-linejoin="round"/>
<path d="M12.8276 10.0034V9.50336" stroke="#2F2E7A" stroke-width="1.245" stroke-linecap="round" stroke-linejoin="round"/>
</svg>
