<svg width="12" height="11" viewBox="0 0 12 11" fill="none" xmlns="http://www.w3.org/2000/svg">
<path d="M10.1328 7.53114V0.905443C10.1328 0.870627 10.1254 0.836156 10.111 0.804016C10.0967 0.771876 10.0756 0.742702 10.049 0.718176C10.0225 0.693651 9.991 0.674259 9.95636 0.661118C9.92173 0.647977 9.88464 0.641346 9.84724 0.641609H8.5295C8.45432 0.641609 8.38223 0.669406 8.32907 0.718884C8.27592 0.768362 8.24605 0.83547 8.24605 0.905443V7.53114H7.16042C7.04918 7.53175 6.94061 7.56286 6.84826 7.62058C6.75592 7.67831 6.6839 7.76009 6.64122 7.8557C6.59853 7.95131 6.58707 8.05652 6.60827 8.15816C6.62946 8.2598 6.68237 8.35338 6.76039 8.42718L8.79262 10.3188C8.89872 10.4176 9.04261 10.473 9.19265 10.473C9.34268 10.473 9.48657 10.4176 9.59267 10.3188L11.6249 8.42718C11.7029 8.35338 11.7558 8.2598 11.777 8.15816C11.7982 8.05652 11.7868 7.95131 11.7441 7.8557C11.7014 7.76009 11.6294 7.67831 11.537 7.62058C11.4447 7.56286 11.3361 7.53175 11.2249 7.53114H10.1328Z" fill="#9FB6D8"/>
<path d="M1.98169 3.57859V10.2093C1.98169 10.2439 1.98902 10.2782 2.00326 10.3102C2.01751 10.3422 2.03838 10.3713 2.0647 10.3958C2.09102 10.4203 2.12227 10.4398 2.15666 10.453C2.19105 10.4663 2.22791 10.4731 2.26513 10.4731H3.58608C3.66125 10.4731 3.73335 10.4453 3.7865 10.3958C3.83966 10.3463 3.86952 10.2792 3.86952 10.2093V3.57859H4.9573C5.06853 3.57799 5.17711 3.54688 5.26945 3.48915C5.36179 3.43143 5.43381 3.34965 5.47649 3.25403C5.51918 3.15842 5.53064 3.05322 5.50945 2.95158C5.48825 2.84993 5.43534 2.75636 5.35733 2.68255L3.3251 0.790918C3.21899 0.692184 3.0751 0.636719 2.92507 0.636719C2.77504 0.636719 2.63115 0.692184 2.52504 0.790918L0.49281 2.68255C0.414796 2.75636 0.361884 2.84993 0.340689 2.95158C0.319494 3.05322 0.330955 3.15842 0.373641 3.25403C0.416326 3.34965 0.488342 3.43143 0.580686 3.48915C0.67303 3.54688 0.781605 3.57799 0.892838 3.57859H1.98169Z" fill="#9FB6D8"/>
</svg>
