<svg width="70" height="60" viewBox="0 0 70 60" fill="none" xmlns="http://www.w3.org/2000/svg">
<path d="M35.8376 13.6627C35.6985 14.1297 35.9641 14.6208 36.4305 14.7601L36.5228 14.7877L36.5268 14.7831C36.9644 14.8625 37.3982 14.6 37.5266 14.1657C38.6975 10.225 42.3863 7.47231 46.4957 7.47231C46.9826 7.47231 47.377 7.07688 47.377 6.58987C47.377 6.10283 46.9826 5.70742 46.4957 5.70742C41.4447 5.70742 37.2004 9.07583 35.8376 13.6627ZM35.8376 13.6627L35.9814 13.7055M35.8376 13.6627C35.8376 13.6628 35.8376 13.6628 35.8376 13.6628L35.9814 13.7055M35.9814 13.7055C35.8659 14.0932 36.0864 14.5008 36.4734 14.6164L35.9814 13.7055Z" fill="#2F2E7A" stroke="#F9FFF9" stroke-width="0.3"/>
<path d="M56.733 42.4793H52.3456C51.9418 42.4793 51.6143 42.1513 51.6143 41.7469C51.6143 41.3425 51.9418 41.0145 52.3456 41.0145H56.733C62.7809 41.0145 67.7018 36.0856 67.7018 30.0279C67.7018 23.9702 62.7809 19.0414 56.733 19.0414H56.6275C56.4155 19.0414 56.2138 18.9493 56.0749 18.7887C55.936 18.6281 55.8733 18.4151 55.9036 18.2048C55.9689 17.7486 56.0018 17.2903 56.0018 16.8441C56.0018 11.5941 51.737 7.32237 46.4955 7.32237C44.4563 7.32237 42.5117 7.96063 40.8716 9.16861C40.5112 9.43386 39.9993 9.31615 39.7909 8.91906C35.1459 0.0597568 23.0137 -1.12996 16.7238 6.57686C14.0741 9.82363 13.033 14.0472 13.8672 18.1635C13.9592 18.6182 13.6118 19.0419 13.1506 19.0419H12.8576C6.80967 19.0419 1.88884 23.9708 1.88884 30.0285C1.88884 36.0862 6.80967 41.015 12.8576 41.015H17.245C17.6488 41.015 17.9763 41.343 17.9763 41.7475C17.9763 42.1519 17.6488 42.4799 17.245 42.4799H12.8576C6.00311 42.4799 0.42627 36.894 0.42627 30.0284C0.42627 23.3554 5.69436 17.8914 12.2835 17.5901C11.6646 13.3194 12.8482 9.01163 15.5914 5.64982C22.3256 -2.60211 35.2314 -1.67717 40.6869 7.52432C42.4274 6.43141 44.4189 5.85808 46.4952 5.85808C52.8456 5.85808 57.8777 11.2719 57.4374 17.5969C63.9659 17.9637 69.164 23.3988 69.164 30.0279C69.164 36.894 63.5872 42.4794 56.7327 42.4794L56.733 42.4793Z" fill="#2F2E7A"/>
<path d="M16.266 41.3336C16.266 51.513 24.5341 59.7947 34.6975 59.7947C44.861 59.7947 53.129 51.5129 53.129 41.3336C53.129 31.1541 44.861 22.8725 34.6975 22.8725C24.5339 22.8725 16.266 31.1543 16.266 41.3336ZM18.0289 41.3336C18.0289 32.1275 25.5068 24.6377 34.6975 24.6377C43.8881 24.6377 51.3661 32.1274 51.3661 41.3336C51.3661 50.5397 43.8881 58.0295 34.6975 58.0295C25.5069 58.0295 18.0289 50.5398 18.0289 41.3336Z" fill="#2F2E7A" stroke="#F9FFF9" stroke-width="0.3"/>
<path d="M34.3466 48.7048C34.3466 49.0836 34.6535 49.391 35.0323 49.391C35.411 49.391 35.718 49.084 35.718 48.7048V34.7628C35.718 34.384 35.4111 34.0766 35.0323 34.0766C34.6535 34.0766 34.3466 34.384 34.3466 34.7628V48.7048Z" fill="#2F2E7A" stroke="#483EA8" stroke-width="0.3"/>
<path d="M39.6931 39.4328L39.7994 39.5386C39.6655 39.6732 39.4894 39.7398 39.3145 39.7399L39.6931 39.4328ZM39.6931 39.4328C39.5887 39.5378 39.4514 39.5898 39.3145 39.5899L39.6931 39.4328ZM35.0317 35.7345L38.8298 39.5388C38.9634 39.6726 39.1394 39.7398 39.3145 39.7399L35.0317 35.7345ZM35.0317 35.7345L31.2336 39.5387C30.9662 39.8071 30.5318 39.8069 30.2641 39.5388C29.9965 39.2707 29.9965 38.8365 30.2641 38.5685L34.5468 34.2788C34.5469 34.2788 34.5469 34.2788 34.5469 34.2787L34.5469 34.2787L34.6531 34.3847L35.0317 35.7345Z" fill="#2F2E7A" stroke="#483EA8" stroke-width="0.3"/>
</svg>
