<svg width="18" height="18" viewBox="0 0 18 18" fill="none" xmlns="http://www.w3.org/2000/svg">
<path d="M7.2625 0C3.26013 0 0 3.26013 0 7.2625C0 11.2649 3.26013 14.525 7.2625 14.525C9.00296 14.525 10.6014 13.907 11.854 12.881L16.1903 17.2172C16.3724 17.407 16.6429 17.4834 16.8974 17.417C17.1519 17.3507 17.3507 17.1519 17.417 16.8974C17.4834 16.6429 17.407 16.3724 17.2172 16.1903L12.881 11.854C13.907 10.6014 14.525 9.00296 14.525 7.2625C14.525 3.26013 11.2649 0 7.2625 0ZM7.2625 1.4525C10.4799 1.4525 13.0725 4.04512 13.0725 7.2625C13.0725 10.4799 10.4799 13.0725 7.2625 13.0725C4.04512 13.0725 1.4525 10.4799 1.4525 7.2625C1.4525 4.04512 4.04512 1.4525 7.2625 1.4525Z" fill="#DADADB"/>
</svg>
