<svg width="11" height="13" viewBox="0 0 11 13" fill="none" xmlns="http://www.w3.org/2000/svg">
<path d="M7.87465 0C7.06346 0 6.25306 0.317111 5.64541 0.949688L1.2364 5.53896C-0.412134 7.25555 -0.412134 10.015 1.2364 11.7316C1.28722 11.7844 1.3483 11.8266 1.41599 11.8557C1.41706 11.8561 1.41814 11.8564 1.41921 11.8568C3.08014 13.4098 5.67093 13.3925 7.26599 11.7316L10.3674 8.50263C10.5103 8.36318 10.5649 8.15794 10.5098 7.9672C10.4546 7.77645 10.2985 7.63051 10.1025 7.58646C9.90652 7.5424 9.70177 7.60724 9.56835 7.75561L6.46699 10.9845C5.22719 12.2755 3.27628 12.2755 2.03647 10.9845C0.796622 9.69351 0.796622 7.57702 2.03647 6.28598L6.44441 1.69671C7.25086 0.857172 8.49951 0.857172 9.30596 1.69671C10.1123 2.53616 10.1123 3.92172 9.30596 4.76117L5.29377 8.93874C4.91997 9.3276 4.37434 9.32731 4.00117 8.93874C3.628 8.55016 3.628 7.89589 4.00117 7.50731L7.22835 4.14679C7.37131 4.00735 7.42589 3.80211 7.37076 3.61136C7.31562 3.42062 7.15952 3.27468 6.96352 3.23063C6.76753 3.18657 6.56277 3.25141 6.42935 3.39978L3.2011 6.76029C2.41913 7.57455 2.41913 8.8715 3.2011 9.68576C3.25329 9.73996 3.31626 9.78294 3.38606 9.81203C4.17926 10.4659 5.36417 10.4437 6.09276 9.68576L10.105 5.50819C11.2702 4.29516 11.287 2.39677 10.2179 1.12583C10.1921 1.06048 10.1538 1.00066 10.105 0.949688C9.49731 0.317111 8.68584 0 7.87465 0Z" fill="#E8EAF5"/>
</svg>
