<svg width="17" height="14" viewBox="0 0 17 14" fill="none" xmlns="http://www.w3.org/2000/svg">
<path d="M16.1923 1.27273V0.772727H15.6923H13.0769C13.0318 0.772727 12.9912 0.755159 12.9633 0.728029C12.9359 0.701348 12.9231 0.668091 12.9231 0.636364C12.9231 0.604636 12.9359 0.571379 12.9633 0.544698C12.9912 0.517568 13.0318 0.5 13.0769 0.5H16.3462C16.3913 0.5 16.4319 0.517568 16.4598 0.544698C16.4872 0.57138 16.5 0.604638 16.5 0.636364V3.81818C16.5 3.84991 16.4872 3.88316 16.4598 3.90985C16.4319 3.93698 16.3913 3.95455 16.3462 3.95455C16.301 3.95455 16.2604 3.93698 16.2325 3.90985C16.2051 3.88317 16.1923 3.84991 16.1923 3.81818V1.27273ZM0.807692 12.7273V13.2273H1.30769H3.92308C3.96819 13.2273 4.00881 13.2448 4.03668 13.272C4.0641 13.2987 4.07692 13.3319 4.07692 13.3636C4.07692 13.3954 4.0641 13.4286 4.03668 13.4553C4.00881 13.4824 3.96819 13.5 3.92308 13.5H0.653846C0.608736 13.5 0.568112 13.4824 0.540238 13.4553C0.512823 13.4286 0.5 13.3954 0.5 13.3636V10.1818C0.5 10.1501 0.512823 10.1168 0.540238 10.0902C0.568112 10.063 0.608736 10.0455 0.653846 10.0455C0.698956 10.0455 0.73958 10.063 0.767454 10.0902C0.794869 10.1168 0.807692 10.1501 0.807692 10.1818V12.7273ZM15.6923 13.2273H16.1923V12.7273V10.1818C16.1923 10.1501 16.2051 10.1168 16.2325 10.0902C16.2604 10.063 16.301 10.0455 16.3462 10.0455C16.3913 10.0455 16.4319 10.063 16.4598 10.0902C16.4872 10.1168 16.5 10.1501 16.5 10.1818V13.3636C16.5 13.3954 16.4872 13.4286 16.4598 13.4553C16.4319 13.4824 16.3913 13.5 16.3462 13.5H13.0769C13.0318 13.5 12.9912 13.4824 12.9633 13.4553C12.9359 13.4286 12.9231 13.3954 12.9231 13.3636C12.9231 13.3319 12.9359 13.2986 12.9633 13.272C12.9912 13.2448 13.0318 13.2273 13.0769 13.2273H15.6923ZM1.30769 0.772727H0.807692V1.27273V3.81818C0.807692 3.84991 0.79487 3.88316 0.767454 3.90985C0.739578 3.93698 0.698954 3.95455 0.653846 3.95455C0.608738 3.95455 0.568114 3.93698 0.540238 3.90985C0.512823 3.88317 0.5 3.84991 0.5 3.81818V0.636364C0.5 0.604638 0.512823 0.57138 0.540238 0.544698C0.568113 0.517568 0.608737 0.5 0.653846 0.5H3.92308C3.96819 0.5 4.00881 0.517567 4.03668 0.544698C4.0641 0.57138 4.07692 0.604638 4.07692 0.636364C4.07692 0.668089 4.0641 0.701347 4.03668 0.728029C4.00881 0.75516 3.96819 0.772727 3.92308 0.772727H1.30769ZM4.46331 3.72652C4.49119 3.69939 4.53181 3.68182 4.57692 3.68182C4.62203 3.68182 4.66266 3.69939 4.69053 3.72652C4.71795 3.7532 4.73077 3.78646 4.73077 3.81818V10.1818C4.73077 10.2135 4.71795 10.2468 4.69053 10.2735C4.66266 10.3006 4.62203 10.3182 4.57692 10.3182C4.53181 10.3182 4.49119 10.3006 4.46331 10.2735C4.4359 10.2468 4.42308 10.2135 4.42308 10.1818V3.81818C4.42308 3.78646 4.4359 3.7532 4.46331 3.72652ZM12.5769 3.81818V10.1818C12.5769 10.2135 12.5641 10.2468 12.5367 10.2735C12.5088 10.3006 12.4682 10.3182 12.4231 10.3182C12.378 10.3182 12.3373 10.3006 12.3095 10.2735C12.2821 10.2468 12.2692 10.2135 12.2692 10.1818V3.81818C12.2692 3.78645 12.2821 3.7532 12.3095 3.72652C12.3373 3.69939 12.378 3.68182 12.4231 3.68182C12.4682 3.68182 12.5088 3.69939 12.5367 3.72652C12.5641 3.7532 12.5769 3.78646 12.5769 3.81818ZM9.69408 3.72652C9.72196 3.69939 9.76258 3.68182 9.80769 3.68182C9.8528 3.68182 9.89343 3.69939 9.9213 3.72652C9.94872 3.7532 9.96154 3.78645 9.96154 3.81818V10.1818C9.96154 10.2135 9.94871 10.2468 9.9213 10.2735C9.89343 10.3006 9.8528 10.3182 9.80769 10.3182C9.76258 10.3182 9.72196 10.3006 9.69408 10.2735C9.66667 10.2468 9.65385 10.2135 9.65385 10.1818V3.81818C9.65385 3.78645 9.66667 3.7532 9.69408 3.72652ZM7.0787 3.72652C7.10658 3.69939 7.1472 3.68182 7.19231 3.68182C7.23742 3.68182 7.27804 3.69939 7.30592 3.72652C7.33333 3.7532 7.34615 3.78646 7.34615 3.81818V10.1818C7.34615 10.2135 7.33333 10.2468 7.30592 10.2735C7.27804 10.3006 7.23742 10.3182 7.19231 10.3182C7.1472 10.3182 7.10657 10.3006 7.0787 10.2735C7.05129 10.2468 7.03846 10.2135 7.03846 10.1818V3.81818C7.03846 3.78646 7.05128 3.7532 7.0787 3.72652Z" stroke="#2F2E7A"/>
</svg>
