<svg width="21" height="20" viewBox="0 0 21 20" fill="none" xmlns="http://www.w3.org/2000/svg">
<path d="M10.3375 18.43L9.8893 17.9818C8.3162 16.4088 6.18273 15.5251 3.95812 15.525H1.83C1.3716 15.525 1 15.1534 1 14.695V1.83C1 1.3716 1.3716 1 1.83 1H3.35886C6.16313 1.00031 8.78179 2.40182 10.3375 4.735V18.43Z" stroke="#FF4437" stroke-width="1.245" stroke-linecap="round" stroke-linejoin="round"/>
<path d="M10.3458 18.43L10.794 17.9818C12.3671 16.4088 14.5006 15.5251 16.7252 15.525H18.8533C19.3117 15.525 19.6833 15.1534 19.6833 14.695V1.83C19.6833 1.3716 19.3117 1 18.8533 1H17.3245C14.5202 1.00031 11.9015 2.40182 10.3458 4.735V18.43Z" stroke="#FF4437" stroke-width="1.245" stroke-linecap="round" stroke-linejoin="round"/>
<path d="M3.47839 4.9317C5.0467 4.80454 6.60834 5.24651 7.87739 6.1767" stroke="#FF4437" stroke-width="1.245" stroke-linecap="round" stroke-linejoin="round"/>
<path d="M3.47839 8.25177C5.0467 8.12461 6.60834 8.56658 7.87739 9.49677" stroke="#FF4437" stroke-width="1.245" stroke-linecap="round" stroke-linejoin="round"/>
<path d="M3.47839 11.5717C5.04666 11.445 6.60814 11.8869 7.87739 12.8167" stroke="#FF4437" stroke-width="1.245" stroke-linecap="round" stroke-linejoin="round"/>
<path d="M16.052 6.60254H14.3647C13.8313 6.60291 13.373 6.98135 13.2718 7.50503C13.1706 8.02871 13.4548 8.55065 13.9497 8.74975L15.6628 9.43533C16.1576 9.63443 16.4418 10.1564 16.3406 10.68C16.2394 11.2037 15.7812 11.5822 15.2478 11.5825H13.562" stroke="#FF4437" stroke-width="1.245" stroke-linecap="round" stroke-linejoin="round"/>
<path d="M14.8112 6.59833V5.97583" stroke="#FF4437" stroke-width="1.245" stroke-linecap="round" stroke-linejoin="round"/>
<path d="M14.8112 12.2092V11.5867" stroke="#FF4437" stroke-width="1.245" stroke-linecap="round" stroke-linejoin="round"/>
</svg>
