<svg width="70" height="69" viewBox="0 0 70 69" fill="none" xmlns="http://www.w3.org/2000/svg">
<path d="M20.1057 26.5433C24.3632 26.5433 28.6207 26.5433 32.888 26.5433C40.9497 26.5433 45.0002 30.3137 44.2019 38.4748C43.4036 46.7146 42.0239 54.9937 39.9247 62.9972C38.3676 68.9531 36.1699 69.6028 29.9807 68.5987C11.3641 65.5863 -0.886088 50.2782 0.050166 31.4852C0.237417 27.7148 1.5186 26.248 5.37202 26.4646C10.2603 26.7501 15.1879 26.5433 20.1057 26.5433Z" fill="#C4532A"/>
<path d="M50.8848 65.0843C56.5319 57.6223 59.2913 49.1955 59.1435 40.2666C59.0548 34.8324 63.1152 31.948 64.4949 27.5771C64.6723 27.0061 67.1362 26.4647 67.8655 26.9372C68.8707 27.5869 69.6591 29.1817 69.7872 30.4517C71.0684 43.1411 66.5547 53.4482 56.66 61.4419C55.773 62.1606 54.8269 62.8103 53.8611 63.4206C52.9051 64.0212 51.8802 64.5331 50.8848 65.0843Z" fill="#C4532A"/>
<path d="M9.2356 11.6781C16.5187 3.96009 25.0435 0.475167 34.889 0.0026353C37.7864 -0.135187 41.3442 5.16111 41.1372 9.25639C40.95 13.076 37.8455 12.1703 35.569 12.19C27.3792 12.2589 19.1895 12.1999 10.9997 12.1703C10.6942 12.1703 10.3985 12.0128 9.2356 11.6781Z" fill="#C4532A"/>
<path d="M48.519 15.5469C52.8257 15.3697 56.9945 19.0712 56.4722 22.1525C56.1962 23.8261 53.9591 26.3561 52.5301 26.4053C48.854 26.5431 46.3114 23.9934 46.3015 20.2525C46.3015 18.4805 47.9375 16.7184 48.519 15.5469Z" fill="#C4532A"/>
<path d="M50.0466 3.17273C53.634 5.81103 57.2114 8.43949 61.6168 11.6783C55.2897 12.1607 51.5151 9.49285 50.0466 3.17273Z" fill="#C4532A"/>
</svg>
