<svg width="18" height="18" viewBox="0 0 18 18" fill="none" xmlns="http://www.w3.org/2000/svg">
<path d="M1.8 1.3H1.3V1.8V8.1V8.6H1.8H6.3H6.8V8.1V1.8V1.3H6.3H1.8ZM11.7 1.3H11.2V1.8V4.5V5H11.7H16.2H16.7V4.5V1.8V1.3H16.2H11.7ZM11.7 9.4H11.2V9.9V16.2V16.7H11.7H16.2H16.7V16.2V9.9V9.4H16.2H11.7ZM1.8 13H1.3V13.5V16.2V16.7H1.8H6.3H6.8V16.2V13.5V13H6.3H1.8ZM0.5 1.8C0.5 1.09239 1.09239 0.5 1.8 0.5H6.3C7.00761 0.5 7.6 1.09239 7.6 1.8V8.1C7.6 8.80761 7.00761 9.4 6.3 9.4H1.8C1.09239 9.4 0.5 8.80761 0.5 8.1V1.8ZM10.4 1.8C10.4 1.09239 10.9924 0.5 11.7 0.5H16.2C16.9076 0.5 17.5 1.09239 17.5 1.8V4.5C17.5 5.20761 16.9076 5.8 16.2 5.8H11.7C10.9924 5.8 10.4 5.20761 10.4 4.5V1.8ZM10.4 9.9C10.4 9.19239 10.9924 8.6 11.7 8.6H16.2C16.9076 8.6 17.5 9.19239 17.5 9.9V16.2C17.5 16.9076 16.9076 17.5 16.2 17.5H11.7C10.9924 17.5 10.4 16.9076 10.4 16.2V9.9ZM0.5 13.5C0.5 12.7924 1.09239 12.2 1.8 12.2H6.3C7.00761 12.2 7.6 12.7924 7.6 13.5V16.2C7.6 16.9076 7.00761 17.5 6.3 17.5H1.8C1.09239 17.5 0.5 16.9076 0.5 16.2V13.5Z" stroke="white"/>
</svg>
