<svg width="11" height="15" viewBox="0 0 11 15" fill="none" xmlns="http://www.w3.org/2000/svg">
<path d="M5.39231 0C4.2001 0 3.17009 0.494997 2.52764 1.29752C1.8852 2.10005 1.61769 3.1406 1.61769 4.26329V4.85308H3.23538V4.26329C3.23538 3.41232 3.44602 2.74249 3.79147 2.30858C4.13691 1.87467 4.60663 1.61769 5.39231 1.61769C6.18009 1.61769 6.6477 1.85993 6.99315 2.29173C7.33859 2.72354 7.54923 3.40179 7.54923 4.26329V4.85308H9.16692V4.26329C9.16692 3.13428 8.88256 2.0832 8.24012 1.28067C7.59768 0.478146 6.58241 0 5.39231 0ZM1.61769 5.39231C0.724591 5.39231 0 6.1169 0 7.01V12.4023C0 13.2954 0.724591 14.02 1.61769 14.02H9.16692C10.06 14.02 10.7846 13.2954 10.7846 12.4023V7.01C10.7846 6.1169 10.06 5.39231 9.16692 5.39231H1.61769ZM5.39231 8.08846C5.98841 8.08846 6.47077 8.57082 6.47077 9.16692C6.47077 9.56503 6.25381 9.90626 5.93154 10.0937V11.3238C5.93154 11.6208 5.68931 11.8631 5.39231 11.8631C5.09531 11.8631 4.85308 11.6208 4.85308 11.3238V10.0937C4.5308 9.90626 4.31385 9.56503 4.31385 9.16692C4.31385 8.57082 4.7962 8.08846 5.39231 8.08846Z" fill="#D3D3D3"/>
</svg>
