<svg width="16" height="16" viewBox="0 0 16 16" fill="none" xmlns="http://www.w3.org/2000/svg">
<path d="M8 0C4.28 0 1.15435 2.55533 0.263021 6H1.64062C2.49262 3.298 5.02067 1.33333 8 1.33333C11.676 1.33333 14.6667 4.324 14.6667 8C14.6667 11.676 11.676 14.6667 8 14.6667C5.02067 14.6667 2.49262 12.702 1.64062 10H0.263021C1.15435 13.4447 4.28 16 8 16C12.4113 16 16 12.4113 16 8C16 3.58867 12.4113 0 8 0ZM7.33333 5.33333V7.33333H0V8.66667H7.33333V10.6667L11.0833 8L7.33333 5.33333Z" fill="white"/>
</svg>
