<svg width="243" height="41" viewBox="0 0 243 41" fill="none" xmlns="http://www.w3.org/2000/svg">
<path d="M78.6463 13.6495C78.6981 15.205 80.098 15.7753 82.0165 15.7753C84.2978 15.7753 85.3867 15.1531 85.3867 12.4537C85.3867 6.43921 80.2536 2.60236 73.0465 2.60236C66.5135 2.60236 61.0693 5.81701 61.0693 14.4759V28.9418C61.0693 37.6039 66.4617 40.8186 72.9947 40.8186C80.2536 40.8186 85.3899 36.8262 85.3899 30.5524C85.3899 27.9081 84.3011 27.2308 81.9679 27.2308C80.205 27.2308 78.7532 27.7493 78.6463 29.3566C78.4907 31.5343 78.0792 34.9045 73.3576 34.9045C69.78 34.9045 67.8098 32.9861 67.8098 28.9418V14.4791C67.8098 10.4348 69.78 8.51642 73.2539 8.51642C78.1796 8.51642 78.5426 12.0422 78.6463 13.6495ZM107.941 28.9451C107.941 32.9893 105.815 34.9077 102.238 34.9077C98.6601 34.9077 96.5343 32.9893 96.5343 28.9451V4.67957C96.5343 3.22779 94.8233 2.60559 93.1641 2.60559C91.4531 2.60559 89.7939 3.22779 89.7939 4.67957V28.9451C89.7939 37.6039 95.2381 40.8186 102.238 40.8186C109.186 40.8186 114.682 37.6039 114.682 28.9451V4.67957C114.682 3.22779 112.971 2.60559 111.311 2.60559C109.6 2.60559 107.941 3.22779 107.941 4.67957V28.9451ZM130.651 34.9077C125.363 34.9077 123.963 30.9153 121.837 30.9153C120.229 30.9153 118.881 33.093 118.881 34.5448C118.881 37.5521 124.066 40.9741 130.859 40.9741C138.014 40.9741 143.199 37.1373 143.199 29.7228C143.199 16.2938 126.555 18.5233 126.555 12.094C126.555 9.60526 128.681 8.10163 132.414 8.10163C136.769 8.10163 137.962 10.0719 139.569 10.0719C141.433 10.0719 142.265 7.68683 142.265 6.49429C142.265 3.07224 135.473 2.34635 132.414 2.34635C126.455 2.34959 119.811 4.99067 119.811 12.7195C119.811 25.0078 136.455 22.6227 136.455 30.4001C136.458 33.5078 133.762 34.9077 130.651 34.9077ZM167.205 40.5075C168.553 40.5075 169.23 39.0038 169.23 37.5521C169.23 36.0484 168.556 34.5966 167.205 34.5966H154.554V4.67957C154.554 3.22779 152.843 2.60559 151.184 2.60559C149.472 2.60559 147.813 3.22779 147.813 4.67957V38.3816C147.813 39.7783 149.265 40.5075 150.769 40.5075H167.205ZM172.908 38.3816C172.908 39.7783 174.568 40.5075 176.279 40.5075C177.938 40.5075 179.649 39.7783 179.649 38.3816V4.67957C179.649 3.22779 177.938 2.60559 176.279 2.60559C174.568 2.60559 172.908 3.22779 172.908 4.67957V38.3816ZM207.647 40.5075C209.307 40.5075 211.018 39.7783 211.018 38.3816V4.67957C211.018 3.22779 209.307 2.60559 207.647 2.60559C205.936 2.60559 204.277 3.22779 204.277 4.67957V25.5198L194.27 6.1832C192.663 3.12409 191.678 2.60559 189.241 2.60559C187.53 2.60559 185.871 3.27964 185.871 4.73142V38.3816C185.871 39.7783 187.53 40.5075 189.241 40.5075C190.9 40.5075 192.611 39.7783 192.611 38.3816V17.5382L203.759 38.3816C204.13 39.0755 204.696 39.646 205.387 40.0235C206.077 40.4011 206.863 40.5692 207.647 40.5075ZM217.24 38.3816C217.24 39.7783 218.899 40.5075 220.61 40.5075C222.269 40.5075 223.98 39.7783 223.98 38.3816V28.2192L226.78 24.6934L236.528 39.4705C236.766 39.8749 237.107 40.2084 237.518 40.4363C237.928 40.6642 238.392 40.7783 238.861 40.7667C240.831 40.7667 242.905 39.0557 242.905 37.3965C242.913 36.9706 242.786 36.5532 242.542 36.204L231.239 18.99L240.523 7.37249C240.809 7.00218 240.955 6.54354 240.938 6.07626C240.938 4.36523 238.76 2.60236 237.049 2.60236C236.68 2.59208 236.315 2.67738 235.988 2.84999C235.662 3.02259 235.385 3.27664 235.186 3.58749L223.98 18.8344V4.67957C223.98 3.22779 222.269 2.60559 220.61 2.60559C218.899 2.60559 217.24 3.22779 217.24 4.67957V38.3816Z" fill="#C4532A"/>
<path d="M19.3917 40.5074C20.7397 40.5074 21.417 39.0038 21.417 37.552C21.417 36.0484 20.743 34.5966 19.3917 34.5966H6.74042V4.67952C6.74042 3.22774 5.02939 2.60555 3.37021 2.60555C1.65918 2.60555 0 3.22774 0 4.67952V38.3816C0 39.7783 1.45178 40.5074 2.95541 40.5074H19.3917Z" fill="#C4532A"/>
<path d="M30.3094 17.769C32.6398 17.769 34.9701 17.769 37.3059 17.769C41.7185 17.769 43.9356 19.8328 43.4986 24.2998C43.0617 28.8099 42.3065 33.3415 41.1575 37.7223C40.3052 40.9823 39.1022 41.3379 35.7146 40.7883C25.5246 39.1394 18.8194 30.7605 19.3319 20.474C19.4344 18.4103 20.1357 17.6074 22.2449 17.7259C24.9205 17.8822 27.6176 17.769 30.3094 17.769Z" fill="#C4532A"/>
<path d="M47.1565 38.8647C50.2475 34.7803 51.7579 30.1678 51.677 25.2805C51.6284 22.3061 53.8509 20.7273 54.6061 18.3349C54.7032 18.0224 56.0518 17.726 56.451 17.9846C57.0012 18.3403 57.4327 19.2132 57.5029 19.9083C58.2041 26.8539 55.7335 32.4956 50.3176 36.871C49.8321 37.2643 49.3142 37.62 48.7856 37.9541C48.2623 38.2827 47.7013 38.5629 47.1565 38.8647Z" fill="#C4532A"/>
<path d="M24.3599 9.63255C28.3463 5.40805 33.0124 3.50055 38.4014 3.24191C39.9873 3.16647 41.9347 6.06543 41.8214 8.30701C41.7189 10.3977 40.0197 9.90197 38.7736 9.91275C34.2909 9.95047 29.8082 9.91814 25.3255 9.90197C25.1582 9.90197 24.9964 9.81576 24.3599 9.63255Z" fill="#C4532A"/>
<path d="M45.8619 11.7501C48.2193 11.6531 50.5011 13.6792 50.2152 15.3657C50.0641 16.2818 48.8396 17.6666 48.0574 17.6935C46.0453 17.769 44.6536 16.3734 44.6482 14.3258C44.6482 13.3559 45.5437 12.3913 45.8619 11.7501Z" fill="#C4532A"/>
<path d="M46.698 4.97701C48.6615 6.4211 50.6197 7.8598 53.031 9.63258C49.5678 9.89661 47.5018 8.43636 46.698 4.97701Z" fill="#C4532A"/>
</svg>
