<svg width="16" height="16" viewBox="0 0 16 16" fill="none" xmlns="http://www.w3.org/2000/svg">
<path d="M2.99906 12.8949L3.34324 13.2136L3.68326 12.8904L5.04375 11.5973L5.08986 11.6458L3.34083 13.3036L2.3818 12.4119L2.42618 12.3643L2.99906 12.8949Z" stroke="#2F2E7A"/>
<path d="M5.8335 3.70004H12.8335V3.76671H5.8335V3.70004Z" stroke="#2F2E7A"/>
<path d="M5.8335 6.90005H12.8335V6.96672H5.8335V6.90005Z" stroke="#2F2E7A"/>
<path d="M10.0996 10.1H12.8329V10.1667H10.0996V10.1Z" stroke="#2F2E7A"/>
<path d="M13.3331 15.5H9.56649V15.4334H13.3385C14.4946 15.4334 15.4331 14.4948 15.4331 13.3387V2.66139C15.4331 1.50525 14.4946 0.566725 13.3385 0.566725H5.32783C4.17169 0.566725 3.23317 1.50525 3.23317 2.66139V6.96671H3.1665V2.66139C3.1665 1.47087 4.13731 0.500061 5.32783 0.500061H13.3331C14.5237 0.500061 15.4945 1.47087 15.4945 2.66139V13.3387C15.4945 14.5292 14.5237 15.5 13.3331 15.5Z" stroke="#2F2E7A"/>
<path d="M5.86665 15.5H1.6C0.99614 15.5 0.5 15.0039 0.5 14.4V10.1334C0.5 9.5295 0.99614 9.03336 1.6 9.03336H5.86665C6.47051 9.03336 6.96665 9.5295 6.96665 10.1334V14.4C6.96665 15.0039 6.47051 15.5 5.86665 15.5ZM1.6 9.10002C1.03052 9.10002 0.566664 9.56388 0.566664 10.1334V14.4C0.566664 14.9695 1.03052 15.4333 1.6 15.4333H5.86665C6.43613 15.4333 6.89998 14.9695 6.89998 14.4V10.1334C6.89998 9.56388 6.43613 9.10002 5.86665 9.10002H1.6Z" stroke="#2F2E7A"/>
</svg>
