<svg width="16" height="20" viewBox="0 0 16 20" fill="none" xmlns="http://www.w3.org/2000/svg">
<path d="M7.6 0C4.44238 0 1.9 2.54238 1.9 5.7V6.65C0.855 6.65 0 7.505 0 8.55V18.05C0 19.095 0.855 19.95 1.9 19.95H13.3C14.345 19.95 15.2 19.095 15.2 18.05V8.55C15.2 7.505 14.345 6.65 13.3 6.65V5.7C13.3 2.54238 10.7576 0 7.6 0ZM7.6 1.9C9.76238 1.9 11.4 3.53762 11.4 5.7V6.65H3.8V5.7C3.8 3.53762 5.43762 1.9 7.6 1.9ZM7.6 11.4C8.645 11.4 9.5 12.255 9.5 13.3C9.5 14.345 8.645 15.2 7.6 15.2C6.555 15.2 5.7 14.345 5.7 13.3C5.7 12.255 6.555 11.4 7.6 11.4Z" fill="#D64BC2"/>
</svg>
