<svg width="14" height="16" viewBox="0 0 14 16" fill="none" xmlns="http://www.w3.org/2000/svg">
<path d="M7 0C5.71979 0 4.66943 1.08165 4.66943 2.4H2.24024C2.20567 2.3939 2.17063 2.39102 2.13555 2.39141C2.10731 2.39217 2.07917 2.39504 2.05134 2.4H0.59094C0.380819 2.39694 0.185374 2.51063 0.079446 2.69752C-0.026482 2.88442 -0.026482 3.11558 0.079446 3.30248C0.185374 3.48937 0.380819 3.60306 0.59094 3.6H1.56201V13.8C1.56201 15.0079 2.5254 16 3.69836 16H10.3016C11.4746 16 12.438 15.0079 12.438 13.8V3.6H13.4091C13.6192 3.60306 13.8146 3.48937 13.9206 3.30248C14.0265 3.11558 14.0265 2.88442 13.9206 2.69752C13.8146 2.51063 13.6192 2.39694 13.4091 2.4H11.9509C11.8884 2.38942 11.8246 2.38942 11.762 2.4H9.33057C9.33057 1.08165 8.28021 0 7 0ZM7 1.2C7.65028 1.2 8.16528 1.73035 8.16528 2.4H5.83472C5.83472 1.73035 6.34972 1.2 7 1.2ZM2.72729 3.6H11.2727V13.8C11.2727 14.3593 10.8447 14.8 10.3016 14.8H3.69836C3.15525 14.8 2.72729 14.3593 2.72729 13.8V3.6ZM5.6314 5.59141C5.30991 5.59658 5.05325 5.86893 5.05786 6.2V12.2C5.05489 12.4164 5.16529 12.6176 5.34678 12.7267C5.52827 12.8358 5.75274 12.8358 5.93423 12.7267C6.11572 12.6176 6.22612 12.4164 6.22315 12.2V6.2C6.22541 6.03775 6.16376 5.88148 6.05227 5.76681C5.94078 5.65215 5.78895 5.58887 5.6314 5.59141ZM8.3504 5.59141C8.02891 5.59658 7.77224 5.86893 7.77686 6.2V12.2C7.77389 12.4164 7.88428 12.6176 8.06577 12.7267C8.24726 12.8358 8.47173 12.8358 8.65322 12.7267C8.83472 12.6176 8.94511 12.4164 8.94214 12.2V6.2C8.9444 6.03775 8.88276 5.88148 8.77127 5.76681C8.65978 5.65215 8.50795 5.58887 8.3504 5.59141Z" fill="white"/>
</svg>
