<svg width="18" height="22" viewBox="0 0 18 22" fill="none" xmlns="http://www.w3.org/2000/svg">
<path d="M16.9158 5.89597C17.0958 5.65092 17.2603 5.42723 17.4055 5.2302C17.5307 6.23315 17.5968 7.86384 17.172 9.85553C16.4782 13.1084 14.4669 17.3645 9.17886 21.4431C9.12969 21.4793 9.06798 21.5 9.00303 21.5C8.93823 21.5 8.87665 21.4794 8.82754 21.4433C3.57919 17.3774 1.55923 13.1425 0.848279 9.90452C0.134779 6.65491 0.731777 4.37063 0.773496 4.21423L0.773642 4.21427L0.776522 4.2023C0.785042 4.16688 0.805496 4.13269 0.837624 4.10596C0.869701 4.07926 0.911376 4.06185 0.956984 4.05836C3.56203 3.88617 5.50614 3.03655 6.80552 2.21944C7.45465 1.81124 7.94262 1.41138 8.27235 1.10839C8.43726 0.956848 8.56291 0.829239 8.64967 0.736495C8.69303 0.690144 8.72689 0.652272 8.75128 0.624222L8.75281 0.622459C8.75928 0.615025 8.77017 0.602509 8.78203 0.588139C8.80776 0.562586 8.83889 0.541316 8.87414 0.526031C8.9134 0.509004 8.95644 0.5 9.00033 0.5C9.04422 0.5 9.08726 0.509004 9.12653 0.526031C9.16577 0.543046 9.1999 0.567475 9.22716 0.596968L9.22709 0.597034L9.23389 0.604108C10.7225 2.15237 12.6395 3.23238 14.7399 3.72201C12.6236 5.7354 10.6802 7.91488 8.92954 10.2386L6.37612 8.35228L6.36145 8.34144L6.34603 8.3317C6.10051 8.17663 5.809 8.1102 5.52087 8.14193C5.23267 8.17366 4.96242 8.30201 4.75712 8.5081C4.55155 8.71446 4.42395 8.98612 4.39932 9.27745C4.37468 9.56885 4.45494 9.85823 4.62405 10.0959L4.63792 10.1154L4.65358 10.1335L8.5746 14.6585C8.68496 14.8095 8.82968 14.9318 8.99616 15.0162C9.17182 15.1053 9.36676 15.1497 9.56335 15.1461C9.75995 15.1425 9.95318 15.0911 10.1255 14.9956C10.2911 14.9039 10.4328 14.774 10.5379 14.616L10.556 14.5916L10.6231 14.5004C10.6805 14.4222 10.7635 14.3089 10.8682 14.1658C11.0776 13.8795 11.3746 13.4729 11.7298 12.9866C11.8722 12.7917 12.0239 12.584 12.1831 12.366C12.8185 11.4961 13.5729 10.4631 14.3266 9.43202C15.2692 8.14254 16.2103 6.85637 16.9158 5.89597Z" stroke="#2F2E7A"/>
</svg>
