<svg width="15" height="15" viewBox="0 0 15 15" fill="none" xmlns="http://www.w3.org/2000/svg">
<path d="M7.5 0C3.3466 0 0 3.3466 0 7.5C0 11.6534 3.3466 15 7.5 15C11.6534 15 15 11.6534 15 7.5C15 6.69321 14.8918 5.88867 14.6034 5.13822L13.6659 6.05769C13.7808 6.51968 13.8462 6.98167 13.8462 7.5C13.8462 11.0201 11.0201 13.8462 7.5 13.8462C3.97987 13.8462 1.15385 11.0201 1.15385 7.5C1.15385 3.97987 3.97987 1.15385 7.5 1.15385C9.23077 1.15385 10.7858 1.84345 11.881 2.9387L12.6923 2.1274C11.3649 0.80003 9.51923 0 7.5 0ZM14.0084 2.46995L7.5 8.97836L5.03005 6.50841L4.20072 7.33774L7.08534 10.2224L7.5 10.619L7.91466 10.2224L14.8377 3.29928L14.0084 2.46995Z" fill="#12DB80"/>
</svg>
