<svg width="18" height="13" viewBox="0 0 18 13" fill="none" xmlns="http://www.w3.org/2000/svg">
<path d="M13.3359 5.27344L13.3175 4.79386C13.3419 4.78347 13.3609 4.77774 13.3684 4.77553C13.3895 4.76931 13.4044 4.76666 13.4059 4.7664L13.406 4.76638C13.4068 4.76625 13.4065 4.76628 13.4051 4.76645C13.399 4.76721 13.3705 4.77072 13.3125 4.77397L13.0973 4.78225L13.0425 4.59437L13.0423 4.59354C12.4342 2.52214 10.5306 1 8.25 1C5.8865 1 3.93544 2.64282 3.40514 4.82571L3.37548 4.94433L3.24631 4.99277L3.24631 4.99275L3.24206 4.99439C1.93327 5.49882 1 6.75041 1 8.25C1 10.1899 2.55655 11.75 4.5 11.75H13.5C15.4435 11.75 17 10.1899 17 8.25C17 6.30687 15.4431 4.75 13.5 4.75V5.25V5.25745C13.4756 5.26236 13.4221 5.26874 13.3359 5.27344ZM13.3359 5.27344L13.31 4.79714C13.3067 4.7986 13.3033 4.80014 13.2999 4.80176C13.2838 4.80939 13.2533 4.82481 13.2187 4.85027C13.203 4.86186 13.1719 4.8858 13.1386 4.92398L13.2066 5.15688L13.0173 5.21207C13.0153 5.23633 13.0151 5.26095 13.0167 5.28572L13.3359 5.27344ZM2.7954 4.69251L2.99031 4.59847L3.05515 4.39201C3.75947 2.14952 5.80439 0.5 8.25 0.5C10.5452 0.5 12.4758 1.95022 13.294 3.98353L13.4121 4.2771L13.728 4.29598C15.8256 4.42137 17.5 6.13886 17.5 8.25C17.5 10.4494 15.6994 12.25 13.5 12.25H4.5C2.30056 12.25 0.5 10.4494 0.5 8.25C0.5 6.68246 1.44475 5.34419 2.7954 4.69251ZM8 6.75V6.25H7.5H7.1742L8.25 4.783L9.3258 6.25H9H8.5V6.75V9.25H8V6.75Z" stroke="#2F2E7A"/>
</svg>
